<svg width="92" height="100" viewBox="0 0 92 100" fill="none" xmlns="http://www.w3.org/2000/svg">
<path d="M92 75.0682C91.4882 75.2649 90.9978 75.5139 90.5366 75.8114L46.399 99.8037C46.2918 99.8608 46.1892 99.9265 46.0924 100H45.9251L42.3713 98.0369L0.407735 75.2365C0.277425 75.1829 0.167744 75.0885 0.0949457 74.9673C0.0221476 74.846 -0.0098936 74.7044 0.0035693 74.5634V25.373C-0.010948 25.2336 0.0190573 25.0933 0.0892292 24.9722C0.159401 24.8512 0.266086 24.7558 0.393798 24.6999L45.6325 0.104703C45.7411 0.036284 45.8667 0 45.9948 0C46.123 0 46.2486 0.036284 46.3572 0.104703C55.4997 5.09666 64.6515 10.0746 73.8126 15.0385L91.5122 24.6719C91.6515 24.7851 91.8215 24.8535 92 24.8682V75.0682Z" fill="#69787C"/>
<path d="M0.755993 49.9541V25.8497C0.742531 25.7087 0.774572 25.5671 0.84737 25.4458C0.920169 25.3246 1.02985 25.2302 1.16016 25.1766C11.7428 19.4461 22.3254 13.697 32.9081 7.92909L45.6184 1.00205C45.7293 0.926089 45.8604 0.88547 45.9947 0.88547C46.1289 0.88547 46.26 0.926089 46.371 1.00205L82.8713 20.8437L90.8988 25.2187C91.0083 25.2659 91.0999 25.3473 91.1601 25.4507C91.2203 25.5542 91.246 25.6744 91.2333 25.7936V74.1146C91.2533 74.242 91.2278 74.3723 91.1615 74.4827C91.0952 74.593 90.9923 74.6762 90.871 74.7176L46.3988 98.9202C46.2822 99.0016 46.1436 99.0452 46.0016 99.0452C45.8597 99.0452 45.7211 99.0016 45.6044 98.9202C34.455 92.8719 23.3428 86.8329 12.2677 80.8033C8.56057 78.7841 4.83946 76.7508 1.11835 74.7456C0.996586 74.6951 0.894243 74.6064 0.82647 74.4928C0.758698 74.3791 0.729099 74.2465 0.742056 74.1146C0.760639 66.0565 0.765285 58.0029 0.755993 49.9541Z" fill="#FDFDFD"/>
<path d="M2.51154 63.7102V36.2123C2.65091 36.0581 2.84602 36.1001 3.01326 36.1001H6.12116C6.59501 36.1001 6.60894 36.1001 6.60894 35.6093V28.8506C6.59296 28.6316 6.64641 28.4132 6.76161 28.2267C6.8768 28.0403 7.04781 27.8954 7.25003 27.8129C9.49385 26.621 11.7098 25.373 13.9397 24.1391L20.5875 20.4932L27.7789 16.5249L33.4929 13.3839L40.0989 9.73809C41.9107 8.72848 43.7364 7.74692 45.5482 6.72328C45.7239 6.6063 45.9299 6.54392 46.1405 6.54392C46.3512 6.54392 46.5572 6.6063 46.7328 6.72328C48.7955 7.88714 50.9139 9.02295 52.9486 10.1588L57.924 12.8931L67.0387 17.9272L73.4914 21.5169L80.9336 25.6254C82.3273 26.3686 83.6373 27.1398 85.0171 27.841C85.2253 27.9274 85.4002 28.0792 85.5157 28.2738C85.6312 28.4683 85.6812 28.6952 85.6581 28.9207V35.5392C85.6581 36.1142 85.6581 36.1142 86.2296 36.1142H89.0169C89.1964 36.0935 89.3776 36.133 89.5326 36.2263C89.6859 36.3385 89.5326 36.4226 89.5326 36.5068V63.7102C89.5326 63.8083 89.1981 63.8223 89.0169 63.8364H86.2296C85.7696 63.8364 85.7418 63.8364 85.7418 64.3271V71.0439C85.7604 71.2687 85.7086 71.4937 85.5936 71.6873C85.4786 71.881 85.3062 72.0335 85.1007 72.1236C82.8708 73.3155 80.6549 74.5494 78.4389 75.7694L71.7075 79.4292L58.6627 86.6227L52.2378 90.2264C50.4121 91.2361 48.5725 92.2316 46.7607 93.2693C46.5723 93.3936 46.3519 93.4598 46.1266 93.4598C45.9013 93.4598 45.6809 93.3936 45.4925 93.2693C43.4019 92.0634 41.3114 90.9276 39.1791 89.7637L32.6707 86.188L25.2284 82.0794L17.6329 77.8727L10.4415 73.9044C9.36842 73.3155 8.30923 72.6845 7.20822 72.1376C7.01239 72.0711 6.84558 71.9383 6.73627 71.7619C6.62697 71.5854 6.58196 71.3762 6.60894 71.1701V64.4113C6.60894 63.8784 6.60894 63.8784 6.07935 63.8784H3.01326C2.84602 63.8223 2.65091 63.8644 2.51154 63.7102Z" fill="#17313B"/>
<path d="M89.5047 36.2123H85.9369C85.6024 36.2123 85.5327 36.1001 85.5327 35.7916V28.6122C85.54 28.492 85.5105 28.3725 85.4482 28.2697C85.3859 28.1669 85.2938 28.0858 85.1843 28.0373L76.8223 23.4239C73.1987 21.5169 69.603 19.4416 65.9934 17.4504L58.593 13.3839L48.6143 7.87312L46.3983 6.6672C46.318 6.61294 46.2234 6.58397 46.1266 6.58397C46.0298 6.58397 45.9352 6.61294 45.8548 6.6672L38.2732 10.8739L21.8557 19.9464L14.6226 23.9147L7.06886 28.1214C6.95934 28.1699 6.86722 28.251 6.80493 28.3538C6.74263 28.4566 6.71314 28.5762 6.72044 28.6963V35.8758C6.72044 36.1843 6.72044 36.2965 6.31627 36.2965H2.51154V26.8314C2.51154 26.5509 2.69272 26.4948 2.8739 26.3967L14.5111 20.1146L40.8237 5.82586L45.6458 3.28781C45.7544 3.21939 45.88 3.18311 46.0081 3.18311C46.1363 3.18311 46.2618 3.21939 46.3705 3.28781L73.6586 18.0113L89.1005 26.3125C89.237 26.367 89.352 26.4652 89.4275 26.5919C89.5031 26.7186 89.5351 26.8668 89.5186 27.0136C89.5093 30.0518 89.5047 33.118 89.5047 36.2123Z" fill="#69787C"/>
<path d="M2.51154 63.7102L6.31674 63.7101C6.65123 63.7101 6.73485 63.8223 6.72091 64.1308V71.3102C6.71362 71.4304 6.7431 71.5499 6.8054 71.6527C6.8677 71.7555 6.95981 71.8366 7.06933 71.8851L26.2463 82.472L33.6606 86.5385L43.6254 92.0493L45.8413 93.2552C45.9217 93.3095 46.0163 93.3385 46.1131 93.3385C46.2099 93.3385 46.3045 93.3095 46.3849 93.2552L53.9665 89.0485L59.5412 85.9776L70.3839 79.9901L77.6171 76.0077L85.1708 71.801C85.2804 71.7525 85.3725 71.6714 85.4348 71.5686C85.4971 71.4658 85.5265 71.3463 85.5193 71.2261V64.0607C85.5193 63.7382 85.5193 63.626 85.9234 63.626H89.5052V73.0911C89.5052 73.3855 89.324 73.4416 89.1567 73.5258L51.1652 93.9844L46.3988 96.6767C46.2802 96.7528 46.1424 96.7933 46.0016 96.7933C45.8609 96.7933 45.7231 96.7528 45.6044 96.6767L16.7136 81.0838L2.91618 73.666C2.77844 73.6119 2.66185 73.5144 2.58394 73.3879C2.50604 73.2615 2.47101 73.113 2.48414 72.9649C2.51201 69.8799 2.4976 66.7951 2.51154 63.7102Z" fill="#69787C"/>
<path d="M84.5718 61.214C84.9481 61.214 85.0456 61.214 85.0456 61.6768V71.0157C85.0587 71.1277 85.036 71.2411 84.9809 71.3394C84.9258 71.4376 84.8411 71.5158 84.739 71.5625L46.4827 92.6382C46.3789 92.7124 46.2547 92.7523 46.1273 92.7523C45.9999 92.7523 45.8757 92.7124 45.7719 92.6382L7.52947 71.5625C7.4348 71.5106 7.35928 71.4294 7.3141 71.3309C7.26891 71.2324 7.25647 71.1218 7.27861 71.0157V61.6347C7.27861 61.2841 7.36223 61.214 7.71065 61.214H84.5718Z" fill="#FDFDFD"/>
<path d="M7.68235 38.7082C7.33393 38.7082 7.2085 38.7082 7.2085 38.2454V28.9486C7.1904 28.8233 7.21498 28.6955 7.27824 28.586C7.3415 28.4765 7.43972 28.3918 7.55692 28.3457C20.2301 21.3812 32.8939 14.3981 45.5485 7.39624C45.7163 7.27925 45.9157 7.21656 46.1199 7.21656C46.3241 7.21656 46.5234 7.27925 46.6913 7.39624L83.8188 27.8689C84.209 28.0792 84.7386 28.2195 84.9616 28.556C85.1846 28.8925 85.0313 29.4815 85.0313 29.9582V38.2595C85.0313 38.624 84.9477 38.7222 84.5714 38.7222L7.68235 38.7082Z" fill="#FDFDFD"/>
<path d="M29.2702 44.3453C30.112 44.3173 30.9508 44.4606 31.7363 44.7666C32.5218 45.0726 33.2378 45.535 33.8414 46.1261C34.0087 46.2944 34.0365 46.3645 33.8414 46.5328C33.5321 46.7901 33.2389 47.0664 32.9634 47.3601C32.7544 47.5985 32.6011 47.5985 32.3781 47.3601C31.9699 46.9531 31.4806 46.6377 30.9425 46.4347C30.4045 46.2317 29.8297 46.1456 29.2562 46.1822C28.7547 46.1931 28.2603 46.3034 27.8011 46.5066C27.342 46.7099 26.9271 47.0022 26.5802 47.3668C26.2334 47.7314 25.9613 48.1612 25.7796 48.6316C25.5979 49.102 25.5101 49.6039 25.5212 50.1085C25.5074 50.2765 25.5074 50.4453 25.5212 50.6133C25.556 51.3432 25.8106 52.0453 26.2512 52.6263C26.6917 53.2073 27.2975 53.6398 27.988 53.8665C28.7195 54.1592 29.5184 54.2382 30.2925 54.0943C31.0667 53.9504 31.7848 53.5895 32.3641 53.0532C32.7822 52.6886 32.7822 52.6746 33.1725 53.0532L33.9808 53.8384C34.0923 53.9366 34.1202 54.0067 33.9808 54.1329C33.4141 54.7159 32.7386 55.1806 31.993 55.5005C31.2474 55.8204 30.4464 55.989 29.6359 55.9968C28.8255 56.0047 28.0214 55.8515 27.2699 55.546C26.5184 55.2406 25.8341 54.789 25.2564 54.217C25.1332 54.1025 25.0169 53.9807 24.908 53.8524C24.1979 52.9857 23.7572 51.9278 23.6407 50.8106C23.5242 49.6935 23.7371 48.5666 24.2529 47.5704C24.6896 46.6022 25.396 45.7822 26.2865 45.2098C27.177 44.6373 28.2135 44.337 29.2702 44.3453Z" fill="#FDFDFD"/>
<path d="M60.935 49.8419V44.3451C60.935 44.0367 60.935 43.9245 61.3252 43.9525C61.7382 43.9806 62.1526 43.9806 62.5656 43.9525C62.914 43.9525 62.9558 44.0647 62.9558 44.3732V48.033C62.9558 48.3135 62.9558 48.4257 63.3042 48.2574C63.8918 47.943 64.5512 47.7892 65.2163 47.8113C65.8815 47.8335 66.5293 48.0308 67.095 48.3836C67.4941 48.6379 67.8224 48.99 68.0492 49.407C68.2759 49.824 68.3935 50.2921 68.3911 50.7674V55.4789C68.3911 55.6472 68.3911 55.7173 68.1681 55.7173H66.6908C66.44 55.7173 66.3982 55.6331 66.3982 55.4088V51.4545C66.3982 50.3046 65.9801 49.7297 65.102 49.6596C64.6162 49.5958 64.125 49.7282 63.7359 50.0277C63.3468 50.3273 63.0913 50.7697 63.0255 51.2582C62.9628 52.3838 62.9628 53.512 63.0255 54.6376C63.0255 54.9741 63.137 55.4368 63.0255 55.6332C62.914 55.8295 62.3565 55.7033 62.0081 55.7173C61.0883 55.7173 61.0883 55.7173 61.0883 54.7918L60.935 49.8419Z" fill="#FDFDFD"/>
<path d="M46.3009 51.8472V55.3388C46.3009 55.6753 46.2033 55.7454 45.9107 55.7174C45.618 55.6893 45.1023 55.7174 44.7121 55.7174C44.5449 55.7174 44.3358 55.8576 44.2522 55.5351C44.1686 55.2126 44.0431 55.5351 43.9595 55.5351C43.4874 55.7867 42.9679 55.9355 42.4348 55.9718C41.9017 56.008 41.367 55.9309 40.8656 55.7454C40.2419 55.5054 39.7087 55.0745 39.3412 54.5135C38.9737 53.9526 38.7903 53.2898 38.8169 52.6184V48.1593C38.8169 47.9069 38.8169 47.8508 39.1235 47.8508C39.4946 47.8789 39.8673 47.8789 40.2384 47.8508C40.5032 47.8508 40.5868 47.8508 40.5729 48.2014V52.1977C40.545 52.4306 40.545 52.666 40.5729 52.8989C40.6215 53.2668 40.8131 53.6003 41.1057 53.8264C41.3982 54.0525 41.768 54.1526 42.1338 54.1048H42.2174C42.7105 54.1323 43.195 53.9666 43.5692 53.6424C43.9434 53.3182 44.1782 52.8607 44.2243 52.366C44.2382 52.2402 44.2382 52.1132 44.2243 51.9874V48.2715C44.2243 47.991 44.2243 47.8789 44.5727 47.8929C45.0369 47.9209 45.5023 47.9209 45.9664 47.8929C46.2173 47.8929 46.273 47.977 46.273 48.2014C46.3009 49.4494 46.3009 50.6553 46.3009 51.8472Z" fill="#FEFEFE"/>
<path d="M56.7537 47.7105C57.9109 47.691 59.0338 48.106 59.9034 48.8744C60.0845 49.0286 60.0985 49.1128 59.9034 49.281C59.6139 49.516 59.3436 49.7739 59.095 50.0523C58.8442 50.3187 58.6769 50.3467 58.3564 50.0523C57.9673 49.7418 57.4978 49.5503 57.0036 49.5006C56.5095 49.4509 56.0115 49.545 55.569 49.7718C55.1698 49.9413 54.8338 50.2331 54.6086 50.6056C54.3835 50.9781 54.2806 51.4125 54.3147 51.8471C54.319 52.3022 54.4634 52.7448 54.7279 53.1139C54.9925 53.483 55.3642 53.7606 55.792 53.9084C56.2339 54.0947 56.7188 54.1527 57.1917 54.0759C57.6647 53.999 58.1067 53.7904 58.4679 53.4737C58.663 53.2914 58.8024 53.2494 58.9975 53.4737C59.1926 53.6981 59.6386 54.0907 59.9731 54.3852C60.3075 54.6797 60.1403 54.5535 59.9731 54.6937C57.7571 56.8251 53.4925 56.18 52.5308 52.983C52.3717 52.4674 52.3155 51.9253 52.3654 51.3877C52.4153 50.8502 52.5703 50.328 52.8216 49.851C53.0729 49.374 53.4155 48.9517 53.8296 48.6084C54.2437 48.2652 54.7212 48.0077 55.2346 47.8508C55.5918 47.7408 55.9621 47.6795 56.3356 47.6685L56.7537 47.7105Z" fill="#FEFEFE"/>
<path d="M48.252 52.5484V49.7439C48.252 49.5055 48.252 49.4354 47.9593 49.4354C47.6666 49.4354 47.2625 49.5476 47.0813 49.4354C46.9001 49.3232 47.0116 48.8324 47.0116 48.5239C47.0116 47.9911 47.0116 47.9911 47.5691 47.9911C48.1266 47.9911 48.252 47.9911 48.252 47.304V45.5512C48.252 45.2848 48.3356 45.2287 48.5865 45.2287H50.2031C50.454 45.2287 50.5376 45.2287 50.5237 45.5512V47.6686C50.5237 47.935 50.6073 48.0332 50.8582 47.9911C51.2205 47.9911 51.764 47.8368 51.8895 47.9911C51.9894 48.4039 52.0131 48.8317 51.9592 49.2531C51.9592 49.4073 51.8616 49.4214 51.7501 49.4214H50.7885C50.4679 49.4214 50.4819 49.5616 50.4819 49.814V55.2687C50.4819 55.6613 50.3704 55.7455 50.008 55.7174C49.6457 55.6894 49.0185 55.7174 48.5168 55.7174C48.2799 55.7174 48.2102 55.7174 48.2241 55.4229L48.252 52.5484Z" fill="#FEFEFE"/>
<path d="M34.8308 49.842V44.3312C34.8308 44.0227 34.9144 43.9385 35.221 43.9526C35.7177 43.9806 36.2156 43.9806 36.7122 43.9526C37.0188 43.9526 37.1025 43.9526 37.1025 44.3312V55.3808C37.1025 55.6612 37.0188 55.7313 36.7541 55.7173H35.1513C34.8447 55.7173 34.7611 55.7173 34.7611 55.3387C34.8308 53.5018 34.8308 51.6649 34.8308 49.842Z" fill="#FDFEFE"/>
<path d="M56.6564 53.2213C56.2868 53.2213 55.9323 53.0736 55.6709 52.8106C55.4096 52.5476 55.2627 52.191 55.2627 51.8191C55.2441 51.5232 55.3131 51.2284 55.4608 50.9719C55.6086 50.7154 55.8286 50.5087 56.093 50.3779C56.3574 50.2471 56.6545 50.198 56.9466 50.2369C57.2387 50.2758 57.5128 50.4009 57.7344 50.5964C57.9559 50.7919 58.1149 51.0491 58.1912 51.3354C58.2676 51.6218 58.258 51.9244 58.1635 52.2053C58.0691 52.4861 57.894 52.7325 57.6605 52.9133C57.427 53.0942 57.1455 53.2013 56.8515 53.2213H56.6564Z" fill="#FD3D2E"/>
<path d="M78.4533 63.5839C78.6206 63.5839 78.9272 63.4577 78.9272 63.7241C78.9272 63.9906 78.6206 63.8503 78.4533 63.8503H13.5638C13.3966 63.8503 13.0761 63.9765 13.0761 63.7241C13.0761 63.4717 13.3966 63.5839 13.5638 63.5839H78.4533Z" fill="#384E57"/>
<path d="M78.4533 36.058C78.6206 36.058 78.9272 35.9318 78.9272 36.1842C78.9272 36.4366 78.6206 36.3244 78.4533 36.3244H13.5638C13.3966 36.3244 13.0761 36.4506 13.0761 36.1842C13.0761 35.9178 13.3966 36.058 13.5638 36.058H78.4533Z" fill="#384E57"/>
<path d="M19.7375 30.1966C19.9605 29.3273 20.1974 28.4579 20.4204 27.5885C20.4256 27.5368 20.441 27.4867 20.4656 27.441C20.4902 27.3954 20.5235 27.3551 20.5637 27.3224C20.6039 27.2898 20.6501 27.2656 20.6997 27.2511C20.7492 27.2366 20.8012 27.2321 20.8525 27.2379C21.1312 27.2379 21.2009 27.3641 21.2566 27.5885C21.4935 28.528 21.7444 29.4675 22.065 30.393L22.3576 29.1309C22.497 28.542 22.6503 27.939 22.7618 27.3501C22.7618 27.0136 23.0405 27.0837 23.2217 27.1117C23.4029 27.1398 23.3332 27.3361 23.3053 27.4483C23.0266 28.6121 22.7339 29.776 22.4691 30.9258C22.4691 31.1642 22.3298 31.2904 22.065 31.2764C21.8002 31.2623 21.6747 31.2764 21.605 30.9398C21.3821 29.9863 21.1033 29.0328 20.8246 27.9531L20.3786 29.5656C20.2532 30.0424 20.1138 30.5332 20.0023 30.9679C19.8908 31.4026 19.7654 31.2203 19.5842 31.2203C19.403 31.2203 19.2497 31.2203 19.194 30.9679C18.9152 29.762 18.6086 28.542 18.316 27.3361C18.316 27.2239 18.2045 27.0556 18.4275 27.0697C18.6505 27.0837 18.8316 26.9715 18.9013 27.308C19.0686 28.1494 19.2776 28.9767 19.4727 29.818L19.5563 30.1406C19.5563 30.1406 19.6818 30.2527 19.7375 30.1966Z" fill="#17313B"/>
<path d="M30.3997 29.0748C30.6267 29.1943 30.8091 29.3846 30.9196 29.6171C31.03 29.8497 31.0626 30.112 31.0123 30.3648C30.9621 30.6175 30.8318 30.8471 30.6409 31.019C30.45 31.191 30.2089 31.296 29.9537 31.3184H28.56C28.3789 31.3184 28.351 31.2343 28.351 31.0941V27.3781C28.351 27.1818 28.4346 27.1538 28.6018 27.1538H29.7586C30.4136 27.1538 30.7899 27.3641 30.9293 27.7708C30.9997 28.0164 30.9858 28.2787 30.8897 28.5154C30.7936 28.752 30.6209 28.9492 30.3997 29.0748Z" fill="#17313B"/>
<path d="M35.3605 27.1258C35.6757 27.0978 35.9929 27.0978 36.3082 27.1258C36.5619 27.1625 36.7979 27.2783 36.9828 27.4568C37.1678 27.6354 37.2925 27.8678 37.3395 28.1214C37.4926 28.7762 37.4926 29.4578 37.3395 30.1126C37.2743 30.4341 37.0992 30.7224 36.8445 30.9274C36.5899 31.1324 36.2718 31.241 35.9458 31.2344H34.5521C34.357 31.2344 34.3013 31.2344 34.3013 30.982V27.3922C34.3013 27.1679 34.3013 27.0978 34.58 27.1118L35.3605 27.1258Z" fill="#18323B"/>
<path d="M43.9177 19.3012V18.5861C43.9266 18.3632 43.9792 18.1443 44.0723 17.9419C44.1655 17.7395 44.2974 17.5575 44.4605 17.4064C44.6236 17.2554 44.8147 17.1381 45.0229 17.0614C45.231 16.9847 45.4522 16.9501 45.6737 16.9595C45.89 16.9742 46.1022 17.0264 46.3009 17.1137C46.5422 17.195 46.7568 17.3412 46.9214 17.5365C47.086 17.7318 47.1943 17.9687 47.2346 18.2215C47.3609 18.8083 47.3609 19.4155 47.2346 20.0024C47.206 20.4018 47.0214 20.7736 46.721 21.0364C46.4206 21.2992 46.029 21.4316 45.6319 21.4046H45.5483C45.1824 21.4566 44.8109 21.3603 44.5156 21.1367C44.2202 20.9132 44.0252 20.5808 43.9734 20.2127C43.9665 20.1427 43.9665 20.0723 43.9734 20.0024C43.9409 19.77 43.9223 19.5359 43.9177 19.3012Z" fill="#18323B"/>
<path d="M57.353 29.173V29.804C57.3106 30.2496 57.0949 30.6602 56.7529 30.9465C56.411 31.2328 55.9704 31.3715 55.5273 31.3325C55.3091 31.3196 55.0957 31.2624 54.9001 31.1642C54.6989 31.0891 54.5202 30.9633 54.3811 30.7988C54.242 30.6343 54.1472 30.4366 54.1057 30.2247C53.9243 29.5355 53.9243 28.8106 54.1057 28.1214C54.1958 27.7366 54.4304 27.402 54.7604 27.1876C55.0904 26.9732 55.4902 26.8957 55.8757 26.9715C56.2224 26.9698 56.5573 27.0981 56.815 27.3315C57.0727 27.5648 57.2347 27.8865 57.2694 28.2335C57.3274 28.5432 57.3554 28.8579 57.353 29.173Z" fill="#18323B"/>
<path d="M68.4741 29.3413C68.9316 29.8119 69.1997 30.4363 69.2267 31.0941C69.2267 31.2483 69.2267 31.3044 69.0455 31.2764C68.8643 31.2483 68.6692 31.3885 68.6135 31.0941C68.5588 30.7949 68.4843 30.4998 68.3905 30.2107C68.3344 29.9842 68.1916 29.7892 67.9931 29.6683C67.7946 29.5475 67.5567 29.5106 67.3313 29.5656H67.2337C67.0525 29.5656 67.0944 29.7479 67.0944 29.8601V30.9819C67.0944 31.3605 66.9968 31.2483 66.8017 31.2623C66.6066 31.2764 66.509 31.2623 66.509 30.9679V27.3781C66.509 27.2379 66.509 27.1117 66.7181 27.1117H68.2929C68.5085 27.1125 68.7167 27.1905 68.8802 27.3319C69.0437 27.4733 69.1517 27.6686 69.1849 27.883C69.2525 28.1322 69.2358 28.397 69.1374 28.6357C69.039 28.8743 68.8645 29.0732 68.6413 29.2011L68.4741 29.3413Z" fill="#18323C"/>
<path d="M48.7677 19.1469V17.4362C48.7677 17.1978 48.7677 17.0856 49.0882 17.0996H50.2868C50.5818 17.0802 50.8727 17.178 51.0968 17.3721C51.3209 17.5661 51.4604 17.8409 51.4854 18.1373C51.4923 18.2213 51.4923 18.3057 51.4854 18.3897C51.5115 18.5334 51.5091 18.6808 51.4783 18.8236C51.4475 18.9663 51.389 19.1015 51.3061 19.2214C51.2232 19.3413 51.1176 19.4435 50.9953 19.5222C50.8729 19.6009 50.7364 19.6544 50.5934 19.6798H50.3286C50.0081 19.6798 49.576 19.5255 49.3949 19.7919C49.2137 20.0584 49.3949 20.4089 49.3949 20.7314C49.3949 21.0539 49.4785 21.096 49.3949 21.2082C49.2634 21.2501 49.1222 21.2501 48.9907 21.2082C48.8653 21.2082 48.8931 21.068 48.8931 20.9838L48.7677 19.1469Z" fill="#18323C"/>
<path d="M58.8441 29.201V27.4482C58.8441 27.1958 58.8441 27.0976 59.1646 27.1117C59.4852 27.1257 59.9869 27.1117 60.405 27.1117C61.1715 27.1117 61.5339 27.5744 61.5339 28.3877C61.5339 29.201 61.1855 29.6497 60.4189 29.7058H60.2378C59.3597 29.7058 59.3597 29.7058 59.3597 30.6453V31.0099C59.3597 31.2202 59.3597 31.2763 59.0949 31.2623C58.8302 31.2483 58.8441 31.3324 58.8441 31.0099C58.8441 30.4209 58.8441 29.804 58.8441 29.201Z" fill="#18323B"/>
<path d="M62.7885 27.4763C62.7885 27.2239 62.7885 27.0977 63.1369 27.1117H64.7815C64.9766 27.1117 65.0881 27.1117 65.0881 27.3781C65.0881 27.6446 64.9626 27.6306 64.7815 27.6306H63.5411C63.1787 27.897 63.4575 28.2896 63.3739 28.6121C63.2902 28.9346 63.3739 28.9066 63.6108 28.8926C63.8477 28.8785 64.3216 28.8926 64.6839 28.8926C65.0463 28.8926 64.9208 28.9767 64.9348 29.159C64.9487 29.3413 64.9348 29.4394 64.67 29.4254C64.4052 29.4114 63.9731 29.4254 63.6386 29.4254C63.3042 29.4254 63.3739 29.4254 63.3599 29.6778C63.3599 30.7716 63.3599 30.7716 64.3773 30.7716H64.8372C65.0184 30.7716 65.102 30.7716 65.102 31.024C65.102 31.2764 65.0184 31.2904 64.8372 31.2764H63.0951C62.8443 31.2764 62.7885 31.1782 62.7885 30.9538V27.4763Z" fill="#19333C"/>
<path d="M38.8731 29.1869V27.4341C38.8731 27.2098 38.8731 27.0976 39.1519 27.1116H40.8522C41.0612 27.1116 41.1448 27.1116 41.1448 27.3921C41.1448 27.6725 41.0194 27.6305 40.8522 27.6305H39.6536C39.2076 27.8268 39.5421 28.2334 39.4585 28.5279C39.3749 28.8224 39.3609 28.9065 39.6815 28.8925H40.7267C40.9358 28.8925 40.9776 28.9766 40.9776 29.1589C40.9776 29.3412 40.9776 29.4393 40.7128 29.4253C40.448 29.4113 40.0299 29.4253 39.6815 29.4253C39.3331 29.4253 39.4306 29.4253 39.4167 29.6777C39.4167 30.7715 39.4167 30.7715 40.4201 30.7715H40.9218C41.103 30.7715 41.1448 30.8556 41.1448 31.0239C41.1448 31.1921 41.1448 31.2903 40.9218 31.2763H39.0961C38.8453 31.2763 38.8453 31.1501 38.8453 30.9538L38.8731 29.1869Z" fill="#19323C"/>
<path d="M25.7023 31.3324C25.4097 31.3324 24.9219 31.4866 24.6989 31.3324C24.4759 31.1781 24.6292 30.6172 24.6292 30.2526V27.5884C24.6292 27.2799 24.7128 27.2098 25.0055 27.2238H26.6082C26.8173 27.2238 26.9009 27.2238 26.9009 27.5042C26.9009 27.7847 26.8033 27.7426 26.6222 27.7426H25.3957C25.2006 27.7426 25.1449 27.7426 25.1309 27.995C25.1309 29.0046 25.1309 29.0046 26.0647 29.0046H26.441C26.6361 29.0046 26.7058 29.0046 26.7058 29.2711C26.7058 29.5375 26.7058 29.5515 26.441 29.5375H25.3957C25.0612 29.5375 25.0891 29.5375 25.0752 29.832C25.0752 30.8836 25.0752 30.8836 26.1204 30.8836H26.5803C26.7476 30.8836 26.8173 30.8836 26.8173 31.122C26.8173 31.3604 26.8173 31.4025 26.5664 31.3884C26.3155 31.3744 26.0786 31.3324 25.7023 31.3324Z" fill="#18323C"/>
<path d="M46.8172 27.4202C46.8172 27.1818 46.8172 27.0977 47.1098 27.1117H48.8101C49.0052 27.1117 49.0888 27.1117 49.0888 27.3641C49.0888 27.6165 49.0888 27.6306 48.8241 27.6306H47.6952C47.3328 27.6306 47.3746 27.7287 47.3746 27.9671C47.3746 28.9066 47.3746 28.9066 48.2945 28.9066H48.6568C48.8519 28.9066 48.9355 28.9066 48.9216 29.173C48.9077 29.4394 48.9216 29.4535 48.6707 29.4394H47.6952C47.3607 29.4394 47.4443 29.4394 47.4304 29.6918C47.4304 30.7856 47.3607 30.7856 48.4338 30.7856H48.8937C49.0749 30.7856 49.1446 30.7856 49.1446 31.024C49.1446 31.2624 49.1446 31.3044 48.8798 31.2904H47.0541C46.8311 31.2904 46.8172 31.1922 46.8172 31.024V27.4202Z" fill="#18323B"/>
<path d="M43.9043 30.6173C44.2527 29.5376 44.5872 28.556 44.8799 27.5604C45.0053 27.1538 45.1865 27.0135 45.6185 27.1678L44.9078 29.3973C44.7266 29.9442 44.5175 30.4911 44.3503 31.052C44.3503 31.3044 44.1134 31.2763 43.9461 31.2763C43.7789 31.2763 43.5141 31.3324 43.5141 31.052C43.096 29.7619 42.65 28.4719 42.218 27.1958C42.7754 27.0416 42.8033 27.0556 42.9705 27.5464C43.2493 28.528 43.5141 29.5235 43.9043 30.6173Z" fill="#18323B"/>
<path d="M71.7914 27.1257C72.0702 27.118 72.3469 27.1756 72.5997 27.294C72.7112 27.294 72.9482 27.294 72.8088 27.5885C72.6694 27.8829 72.6416 27.925 72.3907 27.7707C72.1715 27.6569 71.9262 27.6037 71.6799 27.6165C71.3733 27.6165 71.0946 27.7006 71.0109 28.0512C70.975 28.1942 70.9937 28.3457 71.0634 28.4755C71.133 28.6053 71.2486 28.7041 71.3872 28.7523C71.7078 28.9066 72.0562 29.0328 72.3628 29.201C72.5535 29.2873 72.7155 29.4272 72.8292 29.6038C72.9429 29.7804 73.0035 29.9862 73.0039 30.1966C73.0251 30.4218 72.9726 30.6478 72.8543 30.8402C72.7361 31.0325 72.5586 31.1808 72.3489 31.2623C72.0635 31.3826 71.7547 31.4362 71.4457 31.4192C71.1368 31.4022 70.8357 31.315 70.565 31.1642C70.5273 31.169 70.4892 31.1608 70.4568 31.1409C70.4244 31.121 70.3997 31.0906 70.3867 31.0547C70.3737 31.0189 70.3733 30.9796 70.3854 30.9434C70.3976 30.9072 70.4216 30.8763 70.4535 30.8557C70.6068 30.7014 70.5789 30.5331 70.8158 30.6874C71.1228 30.8813 71.4894 30.956 71.8472 30.8977C71.9816 30.8993 72.1121 30.8518 72.2145 30.7642C72.3169 30.6766 72.3845 30.5547 72.4046 30.421C72.4389 30.292 72.4286 30.1552 72.3754 30.0329C72.3222 29.9106 72.2293 29.8101 72.112 29.7479C71.7914 29.5656 71.443 29.4394 71.1085 29.2711C70.9196 29.2015 70.7546 29.0784 70.6335 28.9167C70.5123 28.7551 70.4402 28.5616 70.4256 28.3597C70.4026 28.1795 70.4234 27.9963 70.4863 27.826C70.5491 27.6557 70.6522 27.5033 70.7865 27.3819C70.9209 27.2605 71.0825 27.1738 71.2576 27.1292C71.4326 27.0845 71.6158 27.0833 71.7914 27.1257Z" fill="#18323C"/>
<path d="M41.0605 18.0253C41.0605 17.5625 40.949 17.5906 40.6424 17.6327C40.4479 17.6541 40.2516 17.6541 40.0571 17.6327C39.8619 17.6327 39.7783 17.6327 39.7783 17.4083C39.7783 17.1839 39.7783 17.1138 40.0571 17.1138H42.6632C42.8583 17.1138 42.9141 17.198 42.9141 17.3803C42.9141 17.5625 42.8305 17.6607 42.6493 17.6327H42.482C41.6319 17.6327 41.6319 17.6327 41.6319 18.5161V20.8858C41.6319 21.0681 41.7155 21.2925 41.3532 21.2925C40.9908 21.2925 41.0466 21.1102 41.0605 20.8999V18.0253Z" fill="#19333C"/>
<path d="M50.4825 29.173V27.4202C50.4825 27.1959 50.4825 27.1117 50.7751 27.1117C51.0678 27.1117 51.0678 27.2239 51.0678 27.4342V30.3088C51.0678 30.6594 51.0678 30.8276 51.5138 30.7716C51.843 30.7433 52.1741 30.7433 52.5033 30.7716C52.8378 30.7716 52.8099 30.7716 52.8099 31.024C52.8099 31.2764 52.6705 31.2764 52.4894 31.2764H50.8727C50.594 31.2764 50.4825 31.2764 50.4964 30.9118C50.5103 30.5472 50.4825 29.7619 50.4825 29.173Z" fill="#1A333D"/>
<path d="M19.7375 30.1966C19.7375 30.2808 19.7379 30.421 19.6542 30.421C19.5706 30.421 19.5706 30.2808 19.5706 30.1966L19.7375 30.1966Z" fill="#C5CBCE"/>
<path d="M29.4381 30.7996C28.9363 30.9398 28.8667 30.6454 28.9224 30.2527V30.1686C28.9224 29.9162 28.7691 29.4955 29.02 29.4114C29.3919 29.2933 29.7942 29.3183 30.1488 29.4815C30.4554 29.6077 30.4415 29.9162 30.4276 30.1966C30.4244 30.3284 30.3773 30.4553 30.2939 30.557C30.2105 30.6587 30.0957 30.7293 29.9677 30.7575L29.4381 30.7996Z" fill="#FCFCFC"/>
<path d="M28.922 28.2616C28.922 27.6165 28.922 27.6165 29.5631 27.6165C30.2042 27.6165 30.3157 27.7147 30.3436 28.1213C30.3558 28.2245 30.3456 28.3291 30.3136 28.4278C30.2816 28.5266 30.2286 28.6172 30.1583 28.6932C30.088 28.7693 30.0021 28.829 29.9065 28.8683C29.811 28.9076 29.708 28.9254 29.6049 28.9206C29.0614 28.9767 28.922 28.9907 28.922 28.2616Z" fill="#FCFCFC"/>
<path d="M34.9427 29.2011V27.911C34.9427 27.7007 34.9427 27.5885 35.2215 27.6306C36.6151 27.6306 36.7824 27.8269 36.7824 29.173V29.3413C36.7824 30.5612 36.3085 30.9539 35.096 30.7435C34.887 30.7435 34.9009 30.5893 34.9009 30.449L34.9427 29.2011Z" fill="#FDFDFD"/>
<path d="M46.7195 19.147V19.8621C46.7232 19.9915 46.7011 20.1203 46.6544 20.241C46.6078 20.3616 46.5375 20.4716 46.4479 20.5645C46.3582 20.6573 46.2509 20.7311 46.1324 20.7815C46.0139 20.8318 45.8865 20.8577 45.7578 20.8577H45.6603C45.0053 20.8577 44.7126 20.6053 44.615 19.8902C44.5313 19.3841 44.5313 18.8677 44.615 18.3617C44.6254 18.2387 44.6602 18.119 44.7173 18.0097C44.7744 17.9004 44.8527 17.8037 44.9475 17.7253C45.0423 17.6469 45.1517 17.5884 45.2694 17.5532C45.387 17.518 45.5104 17.5068 45.6324 17.5204C45.7497 17.5068 45.8684 17.5167 45.9818 17.5496C46.0952 17.5825 46.201 17.6377 46.2931 17.7121C46.3851 17.7864 46.4616 17.8784 46.518 17.9827C46.5745 18.087 46.6098 18.2015 46.6219 18.3196C46.6704 18.5933 46.703 18.8695 46.7195 19.147Z" fill="#FDFDFD"/>
<path d="M56.7258 29.0889V29.9302C56.7223 30.0727 56.6904 30.2129 56.632 30.3427C56.5737 30.4725 56.4901 30.5893 56.3862 30.686C56.2822 30.7827 56.16 30.8575 56.0269 30.906C55.8937 30.9544 55.7522 30.9754 55.6108 30.9679C55.4556 30.9657 55.3029 30.9273 55.1649 30.8557C55.034 30.8054 54.9194 30.72 54.8334 30.6088C54.7474 30.4975 54.6933 30.3647 54.6771 30.2247C54.5376 29.6157 54.5376 28.9828 54.6771 28.3737C54.7116 28.1363 54.8378 27.9222 55.0283 27.7778C55.2188 27.6335 55.4581 27.5705 55.6945 27.6025C55.9234 27.5704 56.1557 27.6304 56.341 27.7695C56.5263 27.9087 56.6495 28.1157 56.684 28.3457C56.7095 28.5926 56.7235 28.8406 56.7258 29.0889Z" fill="#FDFDFD"/>
<path d="M67.0809 28.3456C67.0809 27.6024 67.0809 27.6024 67.8335 27.6165C68.586 27.6305 68.586 27.7707 68.6139 28.2335C68.6378 28.4302 68.584 28.6285 68.4641 28.7858C68.3443 28.9431 68.1679 29.0469 67.9728 29.0748H67.8892C67.0948 29.187 67.0809 29.173 67.0809 28.3456Z" fill="#FBFBFB"/>
<path d="M49.3257 18.3617C49.3257 17.6186 49.3257 17.6185 50.0922 17.6185C50.3849 17.6185 50.6775 17.6185 50.789 17.9551C50.8599 18.1298 50.888 18.319 50.8711 18.5069C50.8541 18.6948 50.7925 18.8759 50.6915 19.0348C50.6433 19.0944 50.5811 19.141 50.5106 19.1704C50.44 19.1998 50.3633 19.211 50.2873 19.2031C50.0971 19.1891 49.9061 19.1891 49.7159 19.2031C49.4093 19.2031 49.2699 19.2031 49.3257 18.8245C49.3576 18.6719 49.3576 18.5143 49.3257 18.3617Z" fill="#FCFCFC"/>
<path d="M59.3456 28.4299C59.3456 27.6025 59.3456 27.6025 60.1818 27.6306C60.7114 27.6306 60.8508 27.8129 60.8508 28.4299C60.8508 29.0468 60.7114 29.2011 60.1539 29.2011C59.3456 29.2151 59.3456 29.2151 59.3456 28.4299Z" fill="#FCFCFC"/>
<path d="M44.3604 75.3476C44.4285 75.3476 44.4814 75.3647 44.5192 75.3989C44.557 75.4332 44.5759 75.4808 44.5759 75.5416C44.5759 75.6748 44.5041 75.7414 44.3604 75.7414H42.1369C42.0726 75.7414 42.0196 75.7224 41.978 75.6843C41.9364 75.6425 41.9156 75.593 41.9156 75.5359C41.9156 75.4636 41.9421 75.4009 41.9951 75.3476L43.3621 73.8352C43.5511 73.6221 43.6873 73.4319 43.7705 73.2645C43.8574 73.0933 43.9009 72.9221 43.9009 72.7509C43.9009 72.5302 43.8366 72.3609 43.7081 72.2429C43.5833 72.125 43.4056 72.066 43.1749 72.066C42.9934 72.066 42.8194 72.1003 42.653 72.1687C42.4866 72.2334 42.3203 72.3342 42.1539 72.4712C42.0972 72.5169 42.0442 72.5397 41.9951 72.5397C41.9535 72.5397 41.9175 72.5207 41.8873 72.4826C41.857 72.4408 41.8419 72.3913 41.8419 72.3342C41.8419 72.2543 41.8722 72.1897 41.9327 72.1402C42.0877 71.9956 42.2768 71.8815 42.4999 71.7978C42.723 71.7141 42.9518 71.6722 43.1862 71.6722C43.5455 71.6722 43.831 71.7673 44.0427 71.9576C44.2583 72.1478 44.3661 72.4046 44.3661 72.728C44.3661 72.9601 44.3131 73.1827 44.2072 73.3958C44.1051 73.6088 43.935 73.8466 43.6967 74.1091L42.5623 75.3476H44.3604Z" fill="#17313B"/>
<path d="M46.5817 75.787C46.1241 75.787 45.7762 75.612 45.538 75.262C45.2998 74.9119 45.1806 74.4021 45.1806 73.7325C45.1806 73.059 45.2998 72.5473 45.538 72.1973C45.7762 71.8472 46.1241 71.6722 46.5817 71.6722C47.0393 71.6722 47.3872 71.8472 47.6254 72.1973C47.8636 72.5435 47.9827 73.0533 47.9827 73.7268C47.9827 74.4002 47.8636 74.9119 47.6254 75.262C47.3872 75.612 47.0393 75.787 46.5817 75.787ZM46.5817 75.3932C46.8993 75.3932 47.1338 75.2582 47.2851 74.988C47.4363 74.7179 47.5119 74.2975 47.5119 73.7268C47.5119 73.1523 47.4363 72.7318 47.2851 72.4655C47.1376 72.1992 46.9031 72.066 46.5817 72.066C46.264 72.066 46.0296 72.2011 45.8783 72.4712C45.7271 72.7375 45.6514 73.1561 45.6514 73.7268C45.6514 74.2975 45.7271 74.7179 45.8783 74.988C46.0296 75.2582 46.264 75.3932 46.5817 75.3932Z" fill="#17313B"/>
<path d="M51.0719 75.3476C51.14 75.3476 51.1929 75.3647 51.2307 75.3989C51.2685 75.4332 51.2874 75.4808 51.2874 75.5416C51.2874 75.6063 51.2685 75.6558 51.2307 75.69C51.1967 75.7243 51.1438 75.7414 51.0719 75.7414H49.1944C49.1225 75.7414 49.0677 75.7243 49.0299 75.69C48.9959 75.6558 48.9788 75.6063 48.9788 75.5416C48.9788 75.4808 48.9977 75.4332 49.0356 75.3989C49.0734 75.3647 49.1263 75.3476 49.1944 75.3476H49.8977V72.2886L49.2795 72.6938C49.2492 72.7128 49.219 72.7223 49.1887 72.7223C49.1358 72.7223 49.0885 72.6976 49.0469 72.6481C49.0091 72.5987 48.9902 72.5454 48.9902 72.4883C48.9902 72.4084 49.0204 72.3514 49.0809 72.3171L49.9431 71.7521C50.0074 71.7103 50.0736 71.6893 50.1417 71.6893C50.2059 71.6893 50.2589 71.7103 50.3005 71.7521C50.3421 71.794 50.3629 71.8529 50.3629 71.929V75.3476H51.0719Z" fill="#17313B"/>
<path d="M53.2592 71.6722C53.7432 71.6722 54.1157 71.8415 54.3766 72.1801C54.6413 72.5188 54.7737 73.002 54.7737 73.6298C54.7737 74.0787 54.7132 74.4649 54.5922 74.7883C54.4711 75.1117 54.2953 75.359 54.0646 75.5302C53.834 75.7014 53.5598 75.787 53.2422 75.787C53.0266 75.787 52.8111 75.7452 52.5955 75.6615C52.3838 75.5778 52.2022 75.4636 52.051 75.3191C51.9867 75.2582 51.9546 75.1935 51.9546 75.125C51.9546 75.0679 51.9697 75.0204 51.9999 74.9823C52.0302 74.9443 52.0661 74.9253 52.1077 74.9253C52.1607 74.9253 52.2155 74.9462 52.2722 74.988C52.6012 75.2582 52.9207 75.3932 53.2308 75.3932C53.5674 75.3932 53.8302 75.2392 54.0193 74.931C54.2083 74.6228 54.3029 74.1909 54.3029 73.6355V73.5613C54.2159 73.7743 54.0741 73.9417 53.8775 74.0635C53.6846 74.1852 53.4653 74.2461 53.2195 74.2461C52.9775 74.2461 52.7619 74.1929 52.5728 74.0863C52.3838 73.9798 52.2363 73.8295 52.1304 73.6355C52.0245 73.4414 51.9716 73.2188 51.9716 72.9677C51.9716 72.7204 52.0264 72.4978 52.1361 72.3C52.2457 72.1021 52.3989 71.9481 52.5955 71.8377C52.7922 71.7274 53.0134 71.6722 53.2592 71.6722ZM53.2875 73.8523C53.5485 73.8523 53.7602 73.7705 53.9228 73.6069C54.0892 73.4395 54.1724 73.2245 54.1724 72.962C54.1724 72.6957 54.0892 72.4807 53.9228 72.3171C53.7602 72.1497 53.5466 72.066 53.2819 72.066C53.0247 72.066 52.8186 72.1478 52.6636 72.3114C52.5085 72.475 52.431 72.6919 52.431 72.962C52.431 73.2322 52.5085 73.449 52.6636 73.6126C52.8224 73.7724 53.0304 73.8523 53.2875 73.8523Z" fill="#17313B"/>
</svg>
