<svg width="105" height="90" viewBox="0 0 105 90" fill="none" xmlns="http://www.w3.org/2000/svg">
<path fill-rule="evenodd" clip-rule="evenodd" d="M52.8436 88.5622C61.5437 88.5401 70.042 85.9468 77.265 81.1099C84.4881 76.273 90.1118 69.4095 93.4259 61.3864C96.7399 53.3633 97.5956 44.5405 95.8847 36.0327C94.1739 27.5248 89.9733 19.7135 83.8136 13.5855C77.6539 7.45748 69.8115 3.28774 61.277 1.60299C52.7425 -0.0817734 43.8988 0.794037 35.8631 4.11978C27.8274 7.44552 20.9602 13.072 16.129 20.2884C11.2978 27.5049 8.71933 35.9875 8.7193 44.6648C8.72297 50.4344 9.86621 56.1467 12.0837 61.4754C14.3012 66.8042 17.5496 71.645 21.6432 75.7215C25.7368 79.7979 30.5955 83.03 35.9417 85.2333C41.288 87.4365 47.017 88.5677 52.8017 88.5622" fill="white"/>
<path fill-rule="evenodd" clip-rule="evenodd" d="M55.8939 45.4186H50.7719L51.6536 43.5622L52.4093 41.8175H54.2705L55.0262 43.5622L55.8939 45.4186Z" fill="#FF7058"/>
<path fill-rule="evenodd" clip-rule="evenodd" d="M59.099 45.4187H47.5117C47.2036 45.4187 46.9082 45.5407 46.6903 45.758C46.4725 45.9752 46.3501 46.2699 46.3501 46.5772V50.3458H60.3445V46.5772C60.3543 46.426 60.3324 46.2746 60.2802 46.1324C60.2279 45.9902 60.1465 45.8604 60.0412 45.7514C59.9358 45.6424 59.8088 45.5565 59.6683 45.4992C59.5277 45.4419 59.3768 45.4145 59.225 45.4187" fill="#FFD15C"/>
<path fill-rule="evenodd" clip-rule="evenodd" d="M55.0262 43.5622C54.5644 43.7995 54.089 44.0229 53.6272 44.2044H53.3333L53.0394 44.0788C52.5626 43.8931 52.0955 43.6835 51.64 43.4507L52.3957 41.7059H54.201L55.0126 43.5065L55.0262 43.5622Z" fill="#F1543F"/>
<path fill-rule="evenodd" clip-rule="evenodd" d="M64.9904 28.0969C64.994 30.7927 64.0424 33.4029 62.3035 35.4667C61.2057 36.7758 59.8337 37.8291 58.2839 38.5525C56.7341 39.2759 55.0442 39.6519 53.3331 39.654C51.6201 39.6635 49.9264 39.2927 48.3749 38.5685C46.8233 37.8442 45.4528 36.7847 44.3627 35.4667C42.6485 33.3898 41.7045 30.787 41.6898 28.0969H64.9904ZM39.3527 25.7241V28.0969C39.3594 30.8613 40.1889 33.5615 41.736 35.855C43.2832 38.1486 45.4784 39.9323 48.0432 40.98C51.436 42.3752 55.2443 42.3752 58.637 40.98C61.1992 39.9302 63.3914 38.1455 64.936 35.8521C66.4806 33.5587 67.308 30.8597 67.3135 28.0969V25.7241H39.3527ZM62.4295 22.5138H44.2368C44.0523 22.5174 43.8764 22.5921 43.7459 22.7222C43.6155 22.8523 43.5406 23.0277 43.537 23.2117C43.5333 23.307 43.5484 23.4022 43.5816 23.4917C43.6147 23.5812 43.6652 23.6632 43.7302 23.7333C43.7952 23.8033 43.8734 23.8598 43.9603 23.8996C44.0472 23.9395 44.1412 23.9618 44.2368 23.9654H62.4295C62.6139 23.9619 62.7898 23.8872 62.9203 23.7571C63.0507 23.627 63.1256 23.4515 63.1292 23.2675C63.1329 23.1722 63.1178 23.0771 63.0847 22.9876C63.0515 22.8981 63.001 22.816 62.936 22.746C62.871 22.676 62.7928 22.6194 62.7059 22.5796C62.619 22.5398 62.5251 22.5174 62.4295 22.5138Z" fill="#F8B64C"/>
<path fill-rule="evenodd" clip-rule="evenodd" d="M62.4292 23.9095V30.1766C62.4481 33.0497 61.5873 35.86 59.9618 38.232C58.3363 40.604 56.0236 42.4246 53.3329 43.4505C50.6604 42.4159 48.3634 40.6004 46.7428 38.2419C45.1223 35.8834 44.2535 33.0917 44.2505 30.2324V23.9095H62.4292Z" fill="#FFD15C"/>
<path fill-rule="evenodd" clip-rule="evenodd" d="M44.2505 24.8308H62.3592V23.9095H44.2505V24.8308Z" fill="#FFC952"/>
<path fill-rule="evenodd" clip-rule="evenodd" d="M57.8811 27.2456H51.1778C50.5363 27.3411 49.9449 27.6466 49.4965 28.1141C49.0481 28.5815 48.7682 29.1843 48.7008 29.8278V36.5833H51.2758V30.4279C51.2793 30.2821 51.3325 30.1419 51.4266 30.0303C51.5208 29.9186 51.6502 29.8423 51.7936 29.8138H57.8811V27.2456ZM52.5353 30.5536C52.5353 30.5536 52.0175 30.5536 52.0175 30.9723V33.0101H55.4601V33.6801C55.4621 33.721 55.4555 33.7618 55.4408 33.8C55.426 33.8381 55.4034 33.8728 55.3744 33.9017C55.3454 33.9306 55.3106 33.9532 55.2724 33.9679C55.2341 33.9826 55.1932 33.9892 55.1522 33.9872H52.0175V36.6392H55.782C56.4106 36.5248 56.981 36.1994 57.3985 35.717C57.816 35.2345 58.0555 34.6241 58.0771 33.9872V30.5536H52.5353Z" fill="white"/>
<path fill-rule="evenodd" clip-rule="evenodd" d="M51.92 78.8616C48.7072 79.0066 45.4924 78.6246 42.4038 77.731C43.5093 76.3352 41.6761 74.9394 39.9268 73.5436L36.2602 70.8079C36.2602 70.8079 38.4294 73.0132 38.2055 74.9115C38.1261 75.3359 38.1261 75.7712 38.2055 76.1956C37.7017 75.9723 37.2118 75.735 36.722 75.4838C38.0095 74.2555 36.5541 72.5108 35.1547 70.8498C33.7552 69.1888 32.1879 67.5139 32.1879 67.5139C32.1879 67.5139 33.8252 70.0681 33.2794 71.9385C33.1276 72.354 33.0564 72.7945 33.0695 73.2366C32.6357 72.9295 32.2159 72.6085 31.796 72.2735C33.1955 71.2546 32.1879 69.2586 31.1663 67.3882C30.1447 65.5179 28.9272 63.6336 28.9272 63.6196C28.9272 63.6057 30.0327 66.4112 29.1651 68.1838C28.9504 68.5801 28.8037 69.0094 28.7312 69.454C28.3814 69.0771 28.0315 68.6863 27.6957 68.2955C29.235 67.4999 28.6333 65.3644 27.9755 63.3405C27.3178 61.3166 26.4642 59.3485 26.4642 59.3206C26.4642 59.2927 27.0519 62.2099 25.8904 63.8569C25.6153 64.2166 25.3981 64.6169 25.2466 65.0433C24.9667 64.6246 24.7009 64.1919 24.449 63.7592C26.1003 63.1869 25.8484 60.9676 25.5965 58.9158C25.3446 56.864 24.7988 54.7983 24.7988 54.7285C24.7988 54.6587 24.8828 57.6457 23.4694 59.0973C23.1572 59.4199 22.9017 59.7927 22.7137 60.2C22.5737 59.8929 22.4478 59.5998 22.3358 59.3067L22.0559 58.6088C23.7212 58.3017 23.8752 56.222 23.9172 54.2539C23.9592 52.2859 23.7912 50.3318 23.7912 50.3178C23.5899 51.7771 22.9225 53.1329 21.888 54.1841C21.528 54.444 21.2075 54.7542 20.9364 55.1054C20.7684 54.4773 20.6285 53.8631 20.5025 53.235C22.1539 53.235 22.5877 51.267 22.9096 49.4385C23.2314 47.61 23.3434 45.7955 23.3294 45.7815C22.9496 47.117 22.1378 48.2898 21.0203 49.1175C20.6335 49.3131 20.2795 49.5674 19.9708 49.8712C19.9054 49.164 19.8495 48.4521 19.8028 47.7356C21.3842 47.931 22.0559 46.2142 22.6017 44.5532C22.9447 43.4533 23.2251 42.3349 23.4414 41.2034C22.9298 42.3966 22.0267 43.381 20.8804 43.9949C20.4823 44.1224 20.1085 44.3159 19.7748 44.5672C19.7748 43.9251 19.7748 43.297 19.8728 42.6689V42.2223C21.2722 42.6271 22.1819 41.0917 22.8676 39.6261C23.5533 38.1606 24.0151 36.6112 24.0151 36.6112C24.0151 36.6112 22.9236 38.5653 21.3142 38.9003C20.9366 38.9658 20.5725 39.0931 20.2366 39.2772C20.3766 38.4537 20.5305 37.6302 20.7125 36.8067C21.9719 37.3091 22.9516 36.025 23.7352 34.7409C24.2516 33.8361 24.7187 32.9042 25.1347 31.9493C25.1347 31.9493 23.8892 33.6801 22.3358 33.7918C22.0063 33.801 21.6804 33.8623 21.3702 33.9732C21.6221 33.1218 21.902 32.2704 22.1959 31.4189C23.2594 31.9633 24.281 30.9025 25.1207 29.7859C25.7097 28.9879 26.2472 28.1534 26.73 27.2874C26.73 27.2874 25.4006 28.8507 23.9312 28.753C23.6754 28.7236 23.4172 28.7236 23.1615 28.753C23.4973 27.9295 23.8752 27.092 24.267 26.2685C24.2615 26.2128 24.2615 26.1567 24.267 26.101C25.1487 26.6454 26.1563 25.78 27.0659 24.8029C27.7089 24.0683 28.3116 23.2995 28.8712 22.4999C28.8712 22.4999 27.4717 23.8957 26.1843 23.6723C25.9205 23.625 25.6504 23.625 25.3866 23.6723C26.2534 21.8246 27.2301 20.0302 28.3114 18.2986C27.0939 20.0852 26.0023 21.8299 25.0367 23.5746C24.9221 23.2599 24.7618 22.9636 24.5609 22.6953C24.1948 22.0408 24.0994 21.2695 24.295 20.5458C24.3908 20.07 24.5266 19.6031 24.7009 19.15C24.0581 20.1929 23.5413 21.3079 23.1615 22.472C22.6577 24.105 22.6717 25.6683 23.8192 25.8637C23.3574 26.771 22.9516 27.6782 22.5597 28.5855C22.4034 28.3344 22.2153 28.1046 21.9999 27.9016C21.7531 27.6105 21.5686 27.2721 21.4579 26.9072C21.3472 26.5423 21.3126 26.1587 21.3562 25.78C21.3768 25.3077 21.452 24.8393 21.5801 24.3842C21.0919 25.5736 20.7626 26.8219 20.6005 28.097C20.3206 29.758 20.6005 31.3073 21.6921 31.4329C21.3982 32.2704 21.1183 33.1078 20.8804 33.9453C20.6881 33.735 20.4721 33.5477 20.2366 33.387C18.9771 32.5635 19.229 30.079 19.271 29.8975C18.8778 31.095 18.6426 32.3384 18.5713 33.5964C18.5713 35.3132 18.9212 36.8625 20.1247 36.8764C19.9568 37.6302 19.8168 38.4118 19.6909 39.1795C19.4597 38.9977 19.2113 38.8387 18.9492 38.7049C17.5497 38.0349 17.4378 35.4528 17.4518 35.2573C17.2009 36.544 17.1162 37.8574 17.1999 39.1655C17.3538 40.9661 18.0115 42.5433 19.299 42.3758C19.299 43.0877 19.2011 43.7716 19.1731 44.5393C18.9019 44.3689 18.6104 44.2329 18.3054 44.1345C16.738 43.66 16.2902 41.1057 16.2622 40.7846C16.1733 42.1443 16.2627 43.5098 16.5281 44.8464C16.92 46.6888 17.9276 48.3219 19.215 47.9171C19.215 48.5731 19.299 49.2431 19.383 49.8991C19.0578 49.7516 18.7142 49.6483 18.3614 49.592C16.6261 49.2989 15.8004 46.5911 15.7444 46.3259C15.8382 47.7971 16.1349 49.2485 16.6261 50.6389C17.3118 52.565 18.5993 54.1702 19.9428 53.4304C20.0734 54.0353 20.2133 54.6354 20.3626 55.231C19.9814 55.111 19.5863 55.0407 19.1871 55.0216C17.2978 55.0216 15.9963 52.1184 15.9684 51.9509C16.2691 53.5126 16.7971 55.022 17.5357 56.4314C18.5853 58.3994 20.2366 59.9487 21.5381 58.9019C21.734 59.4323 21.958 59.9627 22.1819 60.4791C21.7417 60.4065 21.2926 60.4065 20.8524 60.4791C18.8372 60.6885 17.0039 57.7992 16.9899 57.6876C17.5582 59.2807 18.3599 60.7812 19.369 62.1401C20.7684 64.0942 22.8396 65.49 24.0151 64.1221C24.281 64.5688 24.5469 65.0014 24.8408 65.4341C24.3945 65.4052 23.9464 65.4428 23.5113 65.5458C21.4961 66.0622 19.1451 63.3265 19.1871 63.2986C20.009 64.8474 21.0664 66.2599 22.3218 67.4859C24.0851 69.2167 26.3662 70.2775 27.3178 68.798C27.6537 69.1888 28.0175 69.5796 28.3814 69.9704C27.9255 70.0068 27.4774 70.1103 27.0519 70.2775C25.2326 71.0312 22.5877 68.8817 22.3498 68.6724C23.4416 70.06 24.7338 71.2783 26.1843 72.2874C28.3254 73.6832 30.8024 74.423 31.4881 72.8178C31.908 73.1528 32.3418 73.4878 32.7896 73.8088C32.3372 73.9097 31.903 74.0792 31.5021 74.3113C29.7808 75.3302 26.758 73.6832 26.4502 73.4599C27.8125 74.6597 29.3451 75.6521 30.9983 76.405C33.4334 77.5077 36.0783 77.8008 36.4841 76.084C36.9739 76.3352 37.4777 76.5864 37.9955 76.8098C37.5581 76.9886 37.1482 77.2282 36.778 77.5216C35.2246 78.7918 31.852 77.6891 31.4741 77.5216C33.1116 78.4385 34.875 79.1109 36.7081 79.5176C39.381 80.1736 42.1239 79.9224 42.3058 78.2474C45.4336 79.1613 48.6924 79.5482 51.948 79.392V78.8616H51.92Z" fill="#4385F4"/>
<path fill-rule="evenodd" clip-rule="evenodd" d="M53.6271 78.8616C56.8399 79.0066 60.0547 78.6246 63.1433 77.731C62.0378 76.3352 63.871 74.9394 65.6203 73.5436L69.2869 70.8219C69.2869 70.8219 67.1317 73.0272 67.3417 74.9255C67.428 75.3492 67.428 75.7859 67.3417 76.2096C67.8455 75.9863 68.3353 75.749 68.8251 75.4977C67.4956 74.2555 68.895 72.5108 70.2945 70.8498C71.6939 69.1888 73.2613 67.5139 73.2613 67.5139C73.2613 67.5139 71.6239 70.0681 72.1697 71.9385C72.3215 72.354 72.3928 72.7945 72.3796 73.2366C72.8135 72.9295 73.2333 72.6085 73.6531 72.2735C72.2537 71.2546 73.2613 69.2586 74.2829 67.3882C75.3045 65.5179 76.522 63.6336 76.522 63.6196C76.522 63.6057 75.4164 66.4112 76.2841 68.1838C76.4988 68.5801 76.6454 69.0094 76.7179 69.454C77.0818 69.0771 77.4316 68.6863 77.7675 68.2955C76.2141 67.4999 76.8159 65.3643 77.4736 63.3405C78.1313 61.3166 78.985 59.3485 78.985 59.3206C78.985 59.2927 78.3972 62.2099 79.5588 63.8569C79.8338 64.2166 80.051 64.6169 80.2025 65.0433C80.4824 64.6246 80.7483 64.1919 81.0002 63.7592C79.3628 63.1869 79.6007 60.9676 79.8666 58.9158C80.1325 56.864 80.6503 54.7983 80.6503 54.7285C80.6503 54.6587 80.5664 57.6457 82.0498 59.0973C82.3865 59.4182 82.6699 59.7904 82.8894 60.2L83.2673 59.3067C83.3512 59.0694 83.4492 58.8461 83.5332 58.6088C81.8678 58.3017 81.7279 56.222 81.6719 54.2539C81.6159 52.2859 81.7979 50.3318 81.8119 50.3178C82.0054 51.7766 82.6684 53.1333 83.7011 54.1841C84.0642 54.4402 84.3852 54.751 84.6527 55.1054C84.8207 54.4773 84.9606 53.8631 85.0866 53.235C83.4492 53.235 83.0014 51.267 82.6795 49.4385C82.3576 47.61 82.2457 45.7955 82.2597 45.7815C82.6395 47.117 83.4513 48.2898 84.5688 49.1175C84.9556 49.3131 85.3096 49.5674 85.6183 49.8712C85.693 49.164 85.749 48.4521 85.7863 47.7356C84.2049 47.931 83.5332 46.2142 82.9874 44.5532C82.6444 43.4533 82.364 42.3349 82.1477 41.2034C82.1477 41.2034 83.0714 43.4087 84.7087 43.9949C85.1081 44.1193 85.4824 44.313 85.8143 44.5672C85.8143 43.9251 85.8143 43.297 85.7163 42.6689V42.2223C84.3169 42.6271 83.4072 41.0917 82.7355 39.6261C82.2698 38.6569 81.8541 37.6646 81.49 36.6531C81.49 36.6531 82.5956 38.6072 84.1909 38.9422C84.5685 39.0076 84.9326 39.135 85.2685 39.3191C85.1285 38.4956 84.9746 37.672 84.7927 36.8485C83.5472 37.351 82.5536 36.0669 81.7699 34.7828C81.2501 33.8798 80.7828 32.9478 80.3704 31.9912C81.0447 32.9276 82.041 33.5835 83.1693 33.8336C83.4941 33.8441 83.8152 33.9053 84.1209 34.0151C83.869 33.1637 83.6031 32.3122 83.2953 31.4608C82.2317 32.0052 81.2101 30.9444 80.3844 29.8277C79.7936 29.0281 79.2515 28.1938 78.7611 27.3293C78.7611 27.3293 80.1605 28.8926 81.56 28.7949C81.8204 28.7655 82.0833 28.7655 82.3437 28.7949C81.9938 27.9714 81.6299 27.1339 81.2241 26.3104V26.1429C80.3425 26.6872 79.3209 25.8218 78.4252 24.8448C77.78 24.1084 77.1728 23.3397 76.6059 22.5418C76.6059 22.5418 78.0054 23.9375 79.3069 23.7142C79.5706 23.6669 79.8408 23.6669 80.1045 23.7142C79.2272 21.8692 78.2461 20.075 77.1657 18.3405C78.3832 20.1271 79.4748 21.8718 80.4404 23.6165C80.555 23.3017 80.7153 23.0055 80.9162 22.7372C81.2824 22.0826 81.3778 21.3113 81.1821 20.5877C81.0945 20.1099 80.9585 19.6423 80.7763 19.1919C81.4191 20.2347 81.9358 21.3498 82.3157 22.5138C82.8195 24.1469 82.8055 25.7102 81.6719 25.9056C82.1197 26.8129 82.5396 27.7201 82.9174 28.6274C83.0746 28.373 83.2679 28.1426 83.4912 27.9434C83.7356 27.6513 83.9175 27.3124 84.0258 26.9475C84.1341 26.5827 84.1665 26.1996 84.1209 25.8218C84.1003 25.3496 84.0252 24.8812 83.897 24.4261C84.4138 25.596 84.767 26.8312 84.9466 28.097C85.2265 29.758 85.0166 31.3073 83.869 31.4329C84.1583 32.2704 84.4242 33.1078 84.6667 33.9453C84.8641 33.735 85.0848 33.5477 85.3245 33.387C86.57 32.5635 86.3181 30.079 86.2761 29.8975C86.6767 31.0936 86.9167 32.3374 86.9898 33.5964C86.9898 35.3132 86.6399 36.8625 85.4224 36.8764C85.5904 37.6302 85.7303 38.4118 85.8562 39.1795C86.0905 38.9949 86.3438 38.8359 86.6119 38.7049C88.0114 38.0349 88.1233 35.4527 88.0954 35.2573C88.3609 36.5421 88.4456 37.8574 88.3473 39.1655C88.1933 40.9661 87.5356 42.5433 86.2481 42.3758C86.3181 43.0877 86.36 43.7716 86.374 44.5393C86.6452 44.3688 86.9367 44.2329 87.2417 44.1345C88.8091 43.6599 89.2569 41.1057 89.2849 40.7846C89.3738 42.1443 89.2844 43.5098 89.019 44.8464C88.6271 46.6888 87.6195 48.3219 86.3321 47.9171C86.3321 48.5731 86.2481 49.2431 86.1781 49.8991C86.4977 49.7496 86.837 49.6462 87.1857 49.592C88.921 49.2989 89.7607 46.5911 89.8027 46.3259C89.7167 47.7969 89.4246 49.2486 88.935 50.6389C88.2493 52.565 86.9478 54.1702 85.6043 53.4304C85.4831 54.0353 85.3431 54.6354 85.1845 55.231C85.5702 55.1099 85.9701 55.0395 86.374 55.0216C88.2633 55.0216 89.5508 52.1184 89.5928 51.9509C89.2729 53.496 88.7408 54.9896 88.0114 56.3895C86.9758 58.3575 85.3245 59.9068 84.023 58.86C83.8131 59.3904 83.6031 59.9208 83.3652 60.4372C83.8055 60.3651 84.2545 60.3651 84.6947 60.4372C86.7099 60.6466 88.5432 57.7573 88.5572 57.6457C87.9889 59.2389 87.1872 60.7393 86.1781 62.0982C84.7787 64.0523 82.7075 65.4481 81.532 64.0802C81.2661 64.5269 81.0002 64.9596 80.7063 65.3923C81.1758 65.3577 81.6478 65.3954 82.1057 65.5039C84.1069 66.0204 86.458 63.2846 86.416 63.2567C85.6015 64.8065 84.5484 66.2194 83.2953 67.4441C81.518 69.1748 79.2369 70.2356 78.2853 68.7561C77.9494 69.1469 77.5995 69.5377 77.2217 69.9286C77.7013 69.9579 78.1735 70.0615 78.6211 70.2356C80.4404 70.9894 83.0854 68.8399 83.3233 68.6305C82.2315 70.0181 80.9392 71.2364 79.4888 72.2456C77.3476 73.6413 74.8846 74.3811 74.1849 72.776C73.7651 73.1109 73.3313 73.4459 72.8834 73.767C73.3358 73.8678 73.77 74.0373 74.1709 74.2694C75.8922 75.2884 78.915 73.6413 79.2229 73.418C77.8671 74.6197 76.3389 75.6123 74.6887 76.3631C72.2537 77.4658 69.5947 77.7589 69.1889 76.0421C68.6991 76.2933 68.1953 76.5446 67.6915 76.7679C68.1229 76.9502 68.5277 77.1897 68.895 77.4797C70.4484 78.7499 73.8211 77.6472 74.1989 77.4797C72.5431 78.4198 70.7552 79.1067 68.895 79.5176C66.2081 80.1736 63.4652 79.9224 63.2973 78.2474C60.1646 79.1611 56.9012 79.5479 53.6411 79.392V78.8616H53.6271Z" fill="#4385F4"/>
<path fill-rule="evenodd" clip-rule="evenodd" d="M51.7797 78.6103C48.5807 78.7596 45.3789 78.3775 42.3055 77.4797C43.3971 76.0839 41.5918 74.6881 39.8565 73.2923L36.2179 70.5845C36.2179 70.5845 38.3871 72.7619 38.1772 74.6741C38.0988 75.0986 38.0988 75.5338 38.1772 75.9583C37.6874 75.7349 37.1975 75.4977 36.7777 75.2464C38.0512 74.0181 36.5958 72.2734 35.2103 70.6124L32.2715 67.3044C32.2715 67.3044 33.8949 69.8447 33.3491 71.7151C33.2081 72.1282 33.1417 72.563 33.1532 72.9992C32.7193 72.6921 32.2995 72.3711 31.8797 72.0361C33.2791 71.0312 32.2715 69.0352 31.2499 67.1648C30.2283 65.2945 29.0388 63.4241 29.0388 63.4241C29.0388 63.4241 30.1304 66.2157 29.2767 67.9744C29.0603 68.3649 28.9135 68.79 28.8429 69.2306C28.493 68.8537 28.1432 68.4769 27.8073 68.0721C29.3467 67.2905 28.7449 65.1549 28.0872 63.131C27.4295 61.1071 26.5898 59.1531 26.6038 59.1251C26.6178 59.0972 27.1776 62.0144 26.03 63.6475C25.755 64.0072 25.5378 64.4075 25.3863 64.8339C25.1064 64.4152 24.8405 63.9825 24.5886 63.5498C26.2259 62.9775 25.988 60.7582 25.7221 58.7204C25.4562 56.6825 24.9385 54.6168 24.9385 54.533C24.9385 54.4493 25.0224 57.4362 23.623 58.8879C23.2871 59.2008 23.0078 59.5691 22.7973 59.9766L22.4195 59.0833L22.1536 58.3993C23.8049 58.0923 23.9449 56.0125 23.9868 54.0445C24.0288 52.0764 23.8749 50.1363 23.8609 50.1223C23.6751 51.5806 23.0166 52.9383 21.9856 53.9887C21.6275 54.2404 21.3112 54.5466 21.048 54.8959C20.8801 54.2818 20.7401 53.6537 20.6002 53.0256C22.2375 53.0256 22.6854 51.0715 23.0072 49.243C23.3291 47.4145 23.4271 45.614 23.4131 45.6C23.045 46.9676 22.233 48.1751 21.104 49.0336C20.7161 49.2216 20.3616 49.4715 20.0544 49.7734C19.9844 49.0336 19.9145 48.3218 19.9145 47.6379C21.4818 47.8193 22.1536 46.1165 22.7133 44.4555C23.0488 43.3592 23.3244 42.2456 23.539 41.1196C23.0348 42.313 22.1359 43.2982 20.992 43.9111C20.6027 44.0429 20.235 44.231 19.9005 44.4694C19.9005 43.8413 19.9005 43.2132 19.9984 42.5851V42.1385C21.3979 42.5293 22.2935 41.0218 22.9652 39.5563C23.637 38.0907 24.1128 36.4716 24.1128 36.4716C23.513 37.5245 22.5623 38.3345 21.4259 38.7607C21.0521 38.8237 20.6922 38.9512 20.3623 39.1375C20.4882 38.314 20.6562 37.4905 20.8381 36.667C22.0696 37.1695 23.0492 35.8854 23.8329 34.6152C24.3496 33.7106 24.8167 32.7787 25.2323 31.8236C25.2323 31.8236 24.0148 33.5544 22.4335 33.6661C22.1087 33.6766 21.7876 33.7378 21.4818 33.8475C21.7337 32.9961 21.9996 32.1447 22.3075 31.2932C23.3571 31.8376 24.3647 30.7768 25.1904 29.6741C25.8138 28.9153 26.3887 28.1182 26.9117 27.2874C26.9117 27.2874 25.5822 28.8506 24.1968 28.6831C23.9411 28.6533 23.6828 28.6533 23.4271 28.6831C23.7629 27.8596 24.1268 27.0361 24.5186 26.1986L24.5886 26.0451C25.4562 26.5755 26.4638 25.7101 27.3875 24.747C27.9855 24.032 28.546 23.2866 29.0668 22.5138C29.0668 22.5138 27.6674 23.9096 26.3939 23.6862C26.1308 23.6321 25.8593 23.6321 25.5962 23.6862C26.4637 21.846 27.4356 20.0565 28.507 18.3264C27.3035 20.113 26.2119 21.8578 25.2603 23.5885C25.1457 23.2738 24.9854 22.9775 24.7845 22.7092C24.424 22.0528 24.3289 21.2838 24.5186 20.5597C24.6149 20.084 24.7507 19.6172 24.9245 19.1639C24.2782 20.2129 23.7658 21.3382 23.3991 22.5138C22.8953 24.1468 22.9093 25.6962 24.0428 25.8916C23.595 26.7988 23.1892 27.7061 22.7973 28.6133C22.6454 28.3592 22.4568 28.1288 22.2375 27.9294C21.9931 27.6372 21.8112 27.2983 21.7029 26.9335C21.5946 26.5687 21.5622 26.1856 21.6078 25.8078C21.6264 25.3353 21.7016 24.8667 21.8317 24.412C21.3092 25.5234 20.9284 26.6957 20.6982 27.9015C20.4323 29.5625 20.6982 31.1118 21.7897 31.2374C21.4958 32.0609 21.2299 32.8984 20.978 33.7359C20.789 33.5223 20.5726 33.3346 20.3343 33.1775C19.1028 32.354 19.3407 29.8835 19.3967 29.7021C18.9953 30.8932 18.7553 32.1324 18.683 33.3869C18.683 35.0898 19.0328 36.6391 20.2363 36.653C20.0684 37.4068 19.9285 38.1744 19.8025 38.9561C19.5771 38.7664 19.3277 38.6068 19.0608 38.4815C17.6614 37.8115 17.5634 35.2294 17.5914 35.0339C17.3259 36.3187 17.2411 37.6341 17.3395 38.9421C17.4934 40.7287 18.1372 42.306 19.4107 42.1385C19.4107 42.8503 19.3127 43.5343 19.2847 44.288C19.0148 44.1279 18.7287 43.9969 18.4311 43.8972C16.8777 43.4226 16.4299 40.8683 16.4019 40.5473C16.3089 41.9162 16.3983 43.2914 16.6678 44.6369C17.0596 46.4794 18.0672 48.1124 19.3267 47.7076C19.3267 48.359 19.3827 49.015 19.4946 49.6757C19.1727 49.5324 18.8343 49.4292 18.487 49.3686C16.7657 49.0895 15.9401 46.3816 15.8981 46.1165C15.9754 47.5873 16.2629 49.0396 16.7517 50.4294C17.4375 52.3556 18.7249 53.9607 20.0544 53.221C20.1804 53.8212 20.3203 54.4353 20.4742 55.0215C20.0931 54.9016 19.698 54.8312 19.2987 54.8122C17.4235 54.8122 16.136 51.9229 16.108 51.7554C16.4109 53.2968 16.934 54.7869 17.6614 56.18C18.697 58.1481 20.3343 59.6835 21.6358 58.6366C21.8317 59.167 22.0416 59.6974 22.2795 60.2138C21.8165 60.1339 21.3431 60.1339 20.8801 60.2138C18.9628 60.4372 17.1156 57.5479 17.1156 57.4083C17.6746 59.0001 18.4669 60.5006 19.4666 61.8609C20.8661 63.801 22.9093 65.1968 24.0848 63.8289C24.3367 64.2756 24.6166 64.7083 24.8965 65.141C24.4502 65.1126 24.0022 65.1502 23.567 65.2526C21.5938 65.783 19.2707 63.0612 19.3127 62.9915C20.114 64.5423 21.158 65.9558 22.4055 67.1788C24.1688 68.9096 26.4219 69.9704 27.3735 68.4908C27.7093 68.8817 28.0592 69.2725 28.4231 69.6633C27.9717 69.6998 27.5283 69.8033 27.1076 69.9704C25.3023 70.7101 22.6854 68.5746 22.4475 68.3792C23.5317 69.7598 24.8144 70.9732 26.2539 71.9803C28.3671 73.3761 30.8161 74.1019 31.5018 72.4967C31.9217 72.8457 32.3555 73.1667 32.8033 73.4877C32.3509 73.5886 31.9167 73.7581 31.5158 73.9902C29.8225 75.0091 26.8137 73.3621 26.5058 73.1388C27.853 74.3381 29.3717 75.3307 31.012 76.0839C33.4331 77.1866 36.05 77.4797 36.4558 75.7489C36.9457 76.0141 37.4494 76.2514 37.9532 76.4887C37.5222 76.6657 37.1173 76.9005 36.7497 77.1866C35.2103 78.4567 31.8657 77.368 31.4878 77.1866C33.09 78.1336 34.8194 78.848 36.6238 79.3082C39.2827 79.9642 42.0116 79.7129 42.1376 78.0519C45.2436 78.9545 48.4783 79.3365 51.7097 79.1825L51.7797 78.6521V78.6103Z" fill="#4385F4"/>
<path fill-rule="evenodd" clip-rule="evenodd" d="M54.0615 78.6103C57.2512 78.7565 60.4432 78.3745 63.5077 77.4797C62.4021 76.0839 64.2214 74.6881 65.9567 73.2923L69.5952 70.5845C69.5952 70.5845 67.4961 72.7619 67.664 74.6741C67.75 75.0979 67.75 75.5345 67.664 75.9583C68.1678 75.7349 68.6343 75.4977 69.0635 75.2464C67.79 74.0181 69.2314 72.2734 70.6168 70.6124C72.0023 68.9514 73.5697 67.3044 73.5697 67.3044C73.5697 67.3044 71.9463 69.8447 72.4921 71.7151C72.6331 72.1282 72.6994 72.563 72.688 72.9992C73.1265 72.6921 73.5463 72.3711 73.9475 72.0361C72.5481 71.0312 73.5696 69.0352 74.5772 67.1648C75.5848 65.2945 76.8024 63.4241 76.8024 63.4241C76.8024 63.4241 75.6968 66.2157 76.5645 67.9744C76.7809 68.3649 76.9277 68.79 76.9983 69.2306C77.3481 68.8537 77.698 68.4769 78.0339 68.0721C76.4945 67.2905 77.0962 65.1549 77.74 63.131C78.3837 61.1071 79.2514 59.1531 79.2374 59.1251C79.2234 59.0972 78.6636 62.0144 79.8111 63.6475C80.0862 64.0072 80.3034 64.4075 80.4549 64.8339L81.2526 63.5498C79.6152 62.9775 79.8531 60.7582 80.105 58.7204C80.3569 56.6825 80.9027 54.6168 80.9027 54.533C80.9027 54.4493 80.8048 57.4362 82.2182 58.8879C82.554 59.2008 82.8334 59.5691 83.0439 59.9766C83.1698 59.6835 83.2958 59.3764 83.4077 59.0833C83.5197 58.7902 83.5896 58.6227 83.6876 58.3993C82.0363 58.0923 81.8823 56.0125 81.8403 54.0445C81.7984 52.0764 81.9663 50.1363 81.9663 50.1223C82.1666 51.5791 82.8286 52.9338 83.8555 53.9887C84.2136 54.2404 84.53 54.5466 84.7932 54.8959C84.9611 54.2818 85.101 53.6537 85.227 53.0256C83.6036 53.0256 83.1558 51.0715 82.8339 49.243C82.5121 47.4145 82.4141 45.614 82.4281 45.6C82.7893 46.9707 83.6027 48.1803 84.7372 49.0336C85.121 49.2214 85.471 49.4713 85.7728 49.7734C85.8567 49.0616 85.9127 48.3776 85.9547 47.6518C84.3873 47.8333 83.7156 46.1304 83.1558 44.4694C82.8204 43.3732 82.5447 42.2595 82.3301 41.1335C82.8344 42.327 83.7332 43.3122 84.8771 43.9251C85.2636 44.0533 85.6273 44.2418 85.9547 44.4834C85.9547 43.8553 85.9547 43.2272 85.8567 42.5991C85.8567 42.4455 85.8567 42.306 85.8567 42.1524C84.4573 42.5432 83.5617 41.0358 82.8899 39.5702C82.2182 38.1047 81.7424 36.4716 81.7424 36.4716C82.3421 37.5245 83.2929 38.3345 84.4293 38.7607C84.8019 38.8283 85.161 38.9556 85.4929 39.1375C85.3529 38.314 85.199 37.4905 85.0171 36.667C83.7716 37.1695 82.792 35.8854 82.0223 34.6152C81.2526 33.345 80.6228 31.8236 80.6228 31.8236C80.6228 31.8236 81.8543 33.5544 83.4217 33.6661C83.7463 33.6779 84.0672 33.7391 84.3733 33.8475C84.1214 32.9961 83.8415 32.1447 83.5477 31.2932C82.4981 31.8376 81.4765 30.7768 80.6508 29.6741C80.0693 28.874 79.5366 28.0396 79.0555 27.1757C79.0555 27.1757 80.3709 28.739 81.7704 28.5715C82.0261 28.5421 82.2843 28.5421 82.5401 28.5715C82.2042 27.748 81.8263 26.9244 81.4345 26.087C81.4345 26.087 81.4345 25.9893 81.4345 25.9334C80.5529 26.4638 79.5453 25.5985 78.6356 24.6354C77.9807 23.9591 77.3595 23.251 76.7744 22.5138C76.7744 22.5138 78.1738 23.9096 79.4473 23.6862C79.7057 23.6324 79.9725 23.6324 80.231 23.6862C79.3598 21.8426 78.3785 20.0527 77.2922 18.3264C78.5097 20.113 79.5872 21.8578 80.5529 23.5885C80.6563 23.2717 80.8124 22.9744 81.0147 22.7092C81.3823 22.0551 81.4777 21.2833 81.2806 20.5597C81.2006 20.0802 81.0644 19.6117 80.8747 19.1639C81.5316 20.2129 82.058 21.3378 82.4421 22.5138C82.9319 24.1468 82.9179 25.6962 81.7844 25.8916C82.2322 26.7988 82.652 27.7061 83.0299 28.6133C83.1871 28.359 83.3803 28.1286 83.6036 27.9294C83.8514 27.6404 84.0395 27.3054 84.1571 26.9438C84.2748 26.5821 84.3197 26.2008 84.2894 25.8218C84.2627 25.3511 84.1924 24.8838 84.0794 24.426C84.601 25.5365 84.9773 26.7093 85.199 27.9155C85.4789 29.5764 85.199 31.1258 84.1214 31.2514C84.4153 32.0749 84.6812 32.9124 84.9191 33.7498C85.1146 33.5429 85.3302 33.3559 85.5629 33.1915C86.8083 32.368 86.5564 29.8975 86.5145 29.716C86.9083 30.9085 87.1436 32.1473 87.2142 33.4009C87.2142 35.1037 86.8783 36.653 85.6748 36.667C85.8427 37.4207 85.9827 38.1884 86.1086 38.97C86.3341 38.7803 86.5834 38.6208 86.8503 38.4955C88.2498 37.8255 88.3477 35.2433 88.2498 35.0479C88.5153 36.3326 88.6001 37.648 88.5017 38.9561C88.3477 40.7427 87.69 42.3199 86.4165 42.1524C86.4165 42.8643 86.5285 43.5482 86.5425 44.3019C86.8173 44.142 87.1081 44.011 87.4101 43.9111C88.9635 43.4366 89.4113 40.8823 89.4253 40.5612C89.5259 41.9302 89.4364 43.3064 89.1594 44.6509C88.7816 46.4933 87.76 48.1264 86.5005 47.7216C86.5005 48.3776 86.4165 49.0336 86.3465 49.6897C86.6684 49.5463 87.0069 49.4432 87.3541 49.3826C89.0754 49.1453 89.8871 46.4375 89.8871 46.2421C89.8084 47.6681 89.5353 49.0769 89.0754 50.4294C88.4037 52.3556 87.1162 53.9607 85.7868 53.221C85.6608 53.8212 85.5209 54.4353 85.3669 55.0215C85.7475 54.8991 86.1429 54.8286 86.5425 54.8122C88.4177 54.8122 89.6912 51.9229 89.7332 51.7554C89.4297 53.2986 88.9017 54.7892 88.1658 56.18C87.1302 58.1481 85.4929 59.6835 84.2054 58.6366C84.0095 59.167 83.7856 59.6974 83.5617 60.2138C83.9972 60.1417 84.4416 60.1417 84.8771 60.2138C86.8783 60.4232 88.6976 57.5339 88.7116 57.4223C88.1513 59.0162 87.354 60.5172 86.3465 61.8748C84.9471 63.815 82.9039 65.2108 81.7424 63.8429C81.4765 64.2895 81.2106 64.7222 80.9307 65.1549C81.3723 65.1265 81.8157 65.1641 82.2462 65.2666C84.2894 65.783 86.5704 63.0612 86.5285 62.9915C85.7272 64.5423 84.6832 65.9558 83.4357 67.1788C81.6724 68.9096 79.4053 69.9704 78.4677 68.4908C78.1318 68.8817 77.782 69.2725 77.4181 69.6633C77.8557 69.7012 78.285 69.8047 78.6916 69.9704C80.5109 70.7101 83.1278 68.5746 83.3657 68.3792C82.278 69.7567 80.9959 70.9697 79.5592 71.9803C77.4321 73.3761 74.9831 74.1019 74.2974 72.4967C73.8775 72.8457 73.4577 73.1667 73.0099 73.4877C73.4623 73.5886 73.8965 73.7581 74.2974 73.9902C75.9907 75.0091 78.9995 73.3621 79.2934 73.1388C77.9504 74.3369 76.4365 75.3295 74.8012 76.0839C72.3801 77.1866 69.7492 77.4797 69.3433 75.7489C68.8535 76.0141 68.3637 76.2514 67.8599 76.4887C68.291 76.6657 68.6959 76.9005 69.0635 77.1866C70.6028 78.4567 73.9335 77.368 74.3114 77.1866C72.7148 78.135 70.9899 78.8495 69.1894 79.3082C66.5305 79.9642 63.8016 79.7129 63.6756 78.0519C60.5694 78.9535 57.3349 79.3355 54.1034 79.1825L54.0335 78.6521L54.0615 78.6103Z" fill="#4385F4"/>
<path fill-rule="evenodd" clip-rule="evenodd" d="M42.0674 72.1478C41.9445 72.0859 41.8388 71.9948 41.7595 71.8826C41.7106 71.8073 41.6817 71.7208 41.6755 71.6314H42.1373C42.1668 71.7033 42.2151 71.766 42.2773 71.8128C42.3593 71.8385 42.4472 71.8385 42.5292 71.8128C42.6536 71.8211 42.777 71.7866 42.879 71.7151C42.9612 71.6127 43.0012 71.483 42.991 71.3522V71.087C42.9172 71.1727 42.8244 71.24 42.7199 71.2836C42.6154 71.3273 42.5022 71.346 42.3892 71.3382C42.2761 71.3471 42.1625 71.3289 42.0579 71.2852C41.9532 71.2415 41.8605 71.1736 41.7875 71.087C41.6362 70.8969 41.5569 70.6597 41.5636 70.417V70.2077C41.5645 69.9662 41.643 69.7314 41.7875 69.5377C41.9106 69.4124 42.07 69.3289 42.2432 69.2988C42.4165 69.2688 42.5948 69.2937 42.7531 69.3702C42.8514 69.4208 42.9374 69.4922 43.005 69.5796V69.426H43.3269V71.3662C43.3344 71.4881 43.3173 71.6102 43.2764 71.7253C43.2355 71.8405 43.1718 71.9462 43.0889 72.0361C42.8857 72.205 42.6253 72.2899 42.3612 72.2734C42.1685 72.2799 41.9769 72.2417 41.8015 72.1618L42.0674 72.1478ZM42.935 70.8358C43.008 70.7383 43.0516 70.6221 43.061 70.5008V70.2495C43.0513 70.124 43.0078 70.0034 42.935 69.9006C42.8953 69.8548 42.8457 69.8185 42.79 69.7943C42.7343 69.7701 42.6738 69.7588 42.6131 69.761C42.3333 69.761 42.1793 69.9425 42.1653 70.2775V70.3752C42.1653 70.7799 42.3053 70.9753 42.6131 70.9753C42.6742 70.981 42.7358 70.9712 42.7921 70.9468C42.8483 70.9224 42.8975 70.8842 42.935 70.8358ZM44.3344 71.2126C44.1688 71.039 44.074 70.8101 44.0686 70.5706V70.2216C44.0735 69.9792 44.1741 69.7485 44.3484 69.5796C44.549 69.4256 44.7951 69.3422 45.0482 69.3422C45.3013 69.3422 45.5473 69.4256 45.7479 69.5796C45.9223 69.7485 46.0228 69.9792 46.0278 70.2216V70.5706C46.0228 70.813 45.9223 71.0437 45.7479 71.2126C45.6526 71.2961 45.5417 71.36 45.4217 71.4007C45.3016 71.4414 45.1747 71.4581 45.0482 71.4499C44.7887 71.4642 44.5334 71.3794 44.3344 71.2126ZM45.37 70.9195C45.4508 70.811 45.4904 70.6775 45.482 70.5426C45.482 70.5426 45.482 70.5426 45.482 70.4031C45.4848 70.3519 45.4848 70.3007 45.482 70.2495C45.4904 70.1147 45.4508 69.9812 45.37 69.8727C45.3294 69.8278 45.2797 69.7919 45.2243 69.7673C45.1688 69.7428 45.1088 69.7301 45.0482 69.7301C44.9875 69.7301 44.9275 69.7428 44.8721 69.7673C44.8166 69.7919 44.767 69.8278 44.7263 69.8727C44.6455 69.9812 44.6059 70.1147 44.6143 70.2495V70.5426C44.6059 70.6775 44.6455 70.811 44.7263 70.9195C44.767 70.9644 44.8166 71.0003 44.8721 71.0248C44.9275 71.0494 44.9875 71.0621 45.0482 71.0621C45.1088 71.0621 45.1688 71.0494 45.2243 71.0248C45.2797 71.0003 45.3294 70.9644 45.37 70.9195ZM46.6435 71.2126C46.4779 71.039 46.3831 70.8101 46.3776 70.5706V70.2216C46.3826 69.9792 46.4831 69.7485 46.6575 69.5796C46.8581 69.4256 47.1041 69.3422 47.3572 69.3422C47.6103 69.3422 47.8563 69.4256 48.057 69.5796C48.2313 69.7485 48.3319 69.9792 48.3368 70.2216V70.5706C48.3319 70.813 48.2313 71.0437 48.057 71.2126C47.9617 71.2961 47.8508 71.36 47.7308 71.4007C47.6107 71.4414 47.4838 71.4581 47.3572 71.4499C47.0977 71.4642 46.8425 71.3794 46.6435 71.2126ZM47.6791 70.9195C47.7599 70.811 47.7995 70.6775 47.7911 70.5426C47.7911 70.5426 47.7911 70.5426 47.7911 70.4031C47.7939 70.3519 47.7939 70.3007 47.7911 70.2495C47.7995 70.1147 47.7599 69.9812 47.6791 69.8727C47.6384 69.8278 47.5888 69.7919 47.5333 69.7673C47.4779 69.7428 47.4179 69.7301 47.3572 69.7301C47.2966 69.7301 47.2366 69.7428 47.1811 69.7673C47.1257 69.7919 47.076 69.8278 47.0354 69.8727C46.9546 69.9812 46.915 70.1147 46.9234 70.2495V70.5426C46.915 70.6775 46.9546 70.811 47.0354 70.9195C47.076 70.9644 47.1257 71.0003 47.1811 71.0248C47.2366 71.0494 47.2966 71.0621 47.3572 71.0621C47.4179 71.0621 47.4779 71.0494 47.5333 71.0248C47.5888 71.0003 47.6384 70.9644 47.6791 70.9195ZM48.9106 71.1987C48.7644 71.0059 48.6857 70.7705 48.6867 70.5287V70.2635C48.6877 70.0263 48.7663 69.796 48.9106 69.6075C48.9844 69.5173 49.0789 69.4461 49.186 69.3999C49.2932 69.3537 49.4099 69.334 49.5264 69.3423C49.6377 69.3414 49.748 69.3647 49.8495 69.4105C49.9509 69.4563 50.0412 69.5235 50.1141 69.6075V68.7421H50.45V71.3662H50.1281V71.2266C50.055 71.3185 49.9611 71.3917 49.854 71.4402C49.747 71.4888 49.6299 71.5112 49.5124 71.5057C49.3973 71.5135 49.282 71.4949 49.1753 71.4513C49.0686 71.4078 48.9732 71.3405 48.8966 71.2545L48.9106 71.1987ZM50.0022 70.8776C50.0788 70.7777 50.1184 70.6544 50.1141 70.5287V70.2356C50.1148 70.1123 50.07 69.9931 49.9882 69.9006C49.9484 69.8548 49.8989 69.8185 49.8432 69.7943C49.7875 69.7701 49.727 69.7588 49.6663 69.761C49.3864 69.761 49.2465 69.9425 49.2185 70.2775V70.5147C49.2185 70.8497 49.3864 71.0312 49.6663 71.0312C49.7305 71.0339 49.7944 71.0214 49.8528 70.9947C49.9112 70.968 49.9624 70.9279 50.0022 70.8776ZM51.4016 71.3801V69.8029H51.0937V69.5796H51.4016V69.426C51.3962 69.329 51.4108 69.2318 51.4445 69.1406C51.4782 69.0494 51.5303 68.966 51.5975 68.8956C51.7212 68.7316 51.9001 68.6175 52.1013 68.5746H52.913V68.7979H52.1013C52.0687 68.7819 52.0328 68.7736 51.9964 68.7736C51.96 68.7736 51.9241 68.7819 51.8914 68.7979C51.8669 68.8704 51.8669 68.9488 51.8914 69.0212V69.1608H52.955V71.3662H52.5632V69.8029H51.9194V71.3662H51.5276L51.4016 71.3801ZM53.5008 71.3662V69.4819H53.8227V69.6493C53.8891 69.5616 53.9762 69.4914 54.0763 69.4452C54.1764 69.3989 54.2863 69.378 54.3964 69.3841H54.5504V69.6633H54.2425C54.1916 69.6599 54.1406 69.6668 54.0925 69.6836C54.0444 69.7004 54.0002 69.7267 53.9626 69.761C53.9253 69.8 53.8962 69.846 53.877 69.8963C53.8578 69.9466 53.8488 70.0003 53.8506 70.0541V71.3662H53.5008ZM55.1381 71.3662V69.4819H55.446V69.6075C55.5126 69.5234 55.5978 69.4557 55.6948 69.4097C55.7919 69.3637 55.8983 69.3406 56.0058 69.3423C56.1297 69.3331 56.2534 69.3615 56.3608 69.4238C56.4682 69.4861 56.5542 69.5793 56.6075 69.6912C56.6785 69.5906 56.7689 69.5052 56.8734 69.44C56.9899 69.3783 57.1194 69.3448 57.2513 69.3423C57.3483 69.3425 57.4442 69.3624 57.5332 69.4007C57.6223 69.4391 57.7025 69.4952 57.7691 69.5656C57.8419 69.6521 57.8967 69.7522 57.9303 69.86C57.9639 69.9678 57.9757 70.0813 57.965 70.1937V71.3662H57.6991V70.2914C57.7133 70.1625 57.6783 70.0329 57.6011 69.9285C57.5642 69.8924 57.5204 69.8639 57.4724 69.8448C57.4244 69.8256 57.373 69.8161 57.3212 69.8168C57.2739 69.8175 57.2271 69.8277 57.1838 69.8469C57.1405 69.8661 57.1016 69.8939 57.0694 69.9285C56.9884 70.0315 56.9485 70.1608 56.9574 70.2914V71.3662C56.9464 71.3712 56.9345 71.3738 56.9224 71.3738C56.9103 71.3738 56.8984 71.3712 56.8874 71.3662H56.5656V70.2914C56.5784 70.1626 56.5436 70.0335 56.4676 69.9285C56.4332 69.8928 56.3919 69.8645 56.3462 69.8453C56.3005 69.8261 56.2513 69.8164 56.2017 69.8168C56.1017 69.8175 56.0061 69.8577 55.9358 69.9285C55.8598 70.0335 55.825 70.1626 55.8378 70.2914V71.3662H55.1381ZM58.9026 71.3662C58.7859 71.3272 58.6835 71.2543 58.6087 71.1568C58.5521 71.1067 58.517 71.0367 58.5108 70.9614C58.5108 70.9614 58.5108 70.9614 58.5108 70.8916H58.8886L58.9726 70.9614C59.0184 71.0019 59.0703 71.0349 59.1265 71.0591H59.3225C59.4049 71.0817 59.4919 71.0817 59.5743 71.0591C59.6041 71.0389 59.6285 71.0119 59.6456 70.9803C59.6626 70.9487 59.6718 70.9135 59.6723 70.8776C59.6844 70.8366 59.6844 70.793 59.6723 70.752L59.5044 70.6683L59.1685 70.5706C58.9884 70.5495 58.8182 70.4768 58.6787 70.3612C58.6241 70.315 58.5806 70.2572 58.5516 70.1919C58.5225 70.1267 58.5085 70.0557 58.5108 69.9843C58.5135 69.8791 58.5476 69.7771 58.6087 69.6912C58.6757 69.5889 58.7738 69.5106 58.8886 69.4679C59.0266 69.3965 59.1811 69.3628 59.3364 69.3702C59.4899 69.3668 59.6424 69.3953 59.7843 69.4539C59.897 69.5004 59.9975 69.572 60.0781 69.6633C60.1348 69.7134 60.1699 69.7834 60.1761 69.8587C60.1836 69.8814 60.1836 69.9058 60.1761 69.9285H59.8822C59.8716 69.9346 59.8595 69.9379 59.8472 69.9379C59.835 69.9379 59.8229 69.9346 59.8123 69.9285H59.7283L59.5883 69.8448H59.4204C59.348 69.8192 59.2689 69.8192 59.1965 69.8448C59.1723 69.8577 59.151 69.8755 59.1341 69.8972C59.1172 69.9188 59.1051 69.9438 59.0985 69.9704C59.0845 70.0063 59.0845 70.0461 59.0985 70.082C59.0985 70.082 59.1685 70.1518 59.2385 70.1797L59.5883 70.2635C60.0502 70.3472 60.2881 70.5566 60.2881 70.8637C60.2901 70.9522 60.2693 71.0398 60.2277 71.118C60.186 71.1963 60.1249 71.2625 60.0502 71.3103C59.8521 71.4423 59.6162 71.506 59.3784 71.4918C59.2101 71.4933 59.0434 71.4601 58.8886 71.3941L58.9026 71.3662ZM60.6939 71.3662V70.9753H61.0857V71.3662H60.6939ZM61.8834 71.1987C61.7121 71.0232 61.6166 70.7876 61.6175 70.5426V70.2216C61.6166 69.9767 61.7121 69.7411 61.8834 69.5656C62.0752 69.4055 62.3192 69.321 62.5691 69.3283C62.7482 69.3242 62.9256 69.3625 63.0869 69.44C63.214 69.5014 63.3244 69.5924 63.4088 69.7052C63.4682 69.7981 63.5064 69.903 63.5208 70.0123C63.5208 70.0123 63.5208 70.0123 63.5208 70.082H63.045C63.0173 69.9939 62.9636 69.9161 62.891 69.8587C62.8135 69.835 62.7306 69.835 62.6531 69.8587C62.5968 69.855 62.5404 69.863 62.4874 69.8822C62.4344 69.9014 62.386 69.9314 62.3452 69.9704C62.2596 70.0824 62.2151 70.2204 62.2193 70.3612V70.6264C62.2193 70.9614 62.3732 71.1289 62.6531 71.1289C62.7413 71.138 62.8298 71.1146 62.902 71.0632C62.9741 71.0118 63.025 70.9359 63.045 70.8497H63.5208C63.5083 70.9552 63.4699 71.0559 63.4088 71.1428C63.3304 71.2594 63.2248 71.3552 63.1009 71.422C62.9345 71.4992 62.7526 71.5374 62.5691 71.5337C62.3192 71.5409 62.0752 71.4565 61.8834 71.2964V71.1987ZM64.1085 71.1987C63.9429 71.0251 63.8481 70.7962 63.8426 70.5566V70.2077C63.8476 69.9652 63.9482 69.7345 64.1225 69.5656C64.3231 69.4117 64.5691 69.3282 64.8223 69.3282C65.0754 69.3282 65.3214 69.4117 65.522 69.5656C65.6964 69.7345 65.7969 69.9652 65.8019 70.2077V70.5566C65.7969 70.799 65.6964 71.0297 65.522 71.1987C65.4267 71.2821 65.3158 71.346 65.1958 71.3867C65.0757 71.4274 64.9488 71.4442 64.8223 71.436C64.5627 71.4503 64.3075 71.3654 64.1085 71.1987ZM65.1441 70.9056C65.2249 70.7971 65.2645 70.6636 65.2561 70.5287V70.2495C65.2645 70.1147 65.2249 69.9812 65.1441 69.8727C65.1034 69.8278 65.0538 69.7919 64.9983 69.7673C64.9429 69.7428 64.8829 69.7301 64.8223 69.7301C64.7616 69.7301 64.7016 69.7428 64.6462 69.7673C64.5907 69.7919 64.5411 69.8278 64.5004 69.8727C64.4196 69.9812 64.38 70.1147 64.3884 70.2495V70.5426C64.38 70.6775 64.4196 70.811 64.5004 70.9195C64.5411 70.9644 64.5907 71.0003 64.6462 71.0248C64.7016 71.0494 64.7616 71.0621 64.8223 71.0621C64.8829 71.0621 64.9429 71.0494 64.9983 71.0248C65.0538 71.0003 65.1034 70.9644 65.1441 70.9195V70.9056Z" fill="black"/>
<path fill-rule="evenodd" clip-rule="evenodd" d="M72.0152 17.6705L72.7009 19.0663L74.2543 19.2896L73.1347 20.3783L73.4006 21.8997L72.0012 21.1739L70.6018 21.8997L70.8677 20.3783L69.7481 19.2896L71.2875 19.0663L72.0152 17.6705ZM34.1463 17.6705L33.4606 19.0663L31.9212 19.2896L33.0268 20.3783L32.7749 21.8997L34.1743 21.1739L35.5738 21.8997L35.3079 20.3644L36.4134 19.2757L34.8741 19.0523L34.1463 17.6705ZM66.0956 10.6916L67.2431 13.0086L69.8041 13.3855L67.9568 15.186L68.3906 17.7264L66.0956 16.526L63.8005 17.7264L64.2343 15.186L62.387 13.3855L64.948 13.0086L66.0956 10.6916ZM40.066 10.6916L38.9184 13.0086L36.3575 13.3855L38.2187 15.186L37.7709 17.7264L40.066 16.526L42.3611 17.7264L41.9272 15.186L43.7885 13.3855L41.2135 13.0086L40.066 10.6916ZM53.0808 5.48535L54.998 9.35166L59.2803 9.96581L56.1735 12.9667L56.9152 17.1541L53.0808 15.2139L49.3023 17.2099L50.03 13.0226L46.8952 9.95185L51.0936 9.33771L53.0808 5.48535Z" fill="#F8B64C"/>
<path fill-rule="evenodd" clip-rule="evenodd" d="M53.0808 5.48535L54.998 9.35166L59.2803 9.96581L56.1735 12.9667L56.9152 17.1541L53.0808 15.2139L49.3023 17.2099L50.03 13.0226L46.8952 9.95185L51.0936 9.33771L53.0808 5.48535Z" fill="#FFA829"/>
<path fill-rule="evenodd" clip-rule="evenodd" d="M66.0956 10.6916L67.2431 13.0086L69.8041 13.3855L67.9568 15.186L68.3906 17.7264L66.0956 16.526L63.8005 17.7264L64.2343 15.186L62.387 13.3855L64.948 13.0086L66.0956 10.6916Z" fill="#F8B64C"/>
<path fill-rule="evenodd" clip-rule="evenodd" d="M72.0152 17.6705L72.7009 19.0663L74.2543 19.2896L73.1347 20.3783L73.4006 21.8997L72.0012 21.1739L70.6018 21.8997L70.8677 20.3783L69.7481 19.2896L71.2875 19.0663L72.0152 17.6705Z" fill="#FFD15C"/>
<path fill-rule="evenodd" clip-rule="evenodd" d="M40.066 10.6916L38.9184 13.0086L36.3575 13.3855L38.2187 15.186L37.7709 17.7264L40.066 16.526L42.3611 17.7264L41.9272 15.186L43.7885 13.3855L41.2135 13.0086L40.066 10.6916Z" fill="#F8B64C"/>
<path fill-rule="evenodd" clip-rule="evenodd" d="M34.1463 17.6705L33.4606 19.0663L31.9212 19.2896L33.0268 20.3783L32.7749 21.8997L34.1743 21.1739L35.5738 21.8997L35.3079 20.3644L36.4134 19.2757L34.8741 19.0523L34.1463 17.6705Z" fill="#FFD15C"/>
<path fill-rule="evenodd" clip-rule="evenodd" d="M0 53.5001H11.8113V71.5057H0L3.79248 62.9915L0 53.5001ZM104.958 53.5001H93.1887V71.5057H105L101.208 62.9915L104.958 53.5001Z" fill="#2C72C6"/>
<path fill-rule="evenodd" clip-rule="evenodd" d="M5.92033 47.3309L11.9099 53.7375V71.4919L5.92033 65.5319V47.3309ZM99.123 47.3309L93.1474 53.4724V71.464L99.123 65.5459V47.3309Z" fill="#3D597A"/>
<path fill-rule="evenodd" clip-rule="evenodd" d="M5.83637 65.448H99.0531V47.2191H5.83637V65.448Z" fill="#4385F4"/>
<path fill-rule="evenodd" clip-rule="evenodd" d="M32.5932 54.8122H31.7816V51.6019H30.648V50.9319H33.7268V51.6019H32.5932V54.8122ZM35.9379 50.8761C36.3418 50.8481 36.7449 50.942 37.0945 51.1458C37.4441 51.3495 37.7241 51.6536 37.8979 52.0184C38.0717 52.3831 38.1313 52.7917 38.069 53.1907C38.0066 53.5897 37.8252 53.9608 37.5483 54.2555C37.2714 54.5502 36.912 54.7549 36.5168 54.8428C36.1216 54.9308 35.709 54.898 35.3327 54.7487C34.9565 54.5993 34.6341 54.3404 34.4076 54.0057C34.181 53.671 34.0608 53.2759 34.0627 52.8721C34.0341 52.6137 34.062 52.3523 34.1443 52.1058C34.2267 51.8592 34.3616 51.6333 34.5398 51.4437C34.7179 51.254 34.9352 51.1051 35.1765 51.0071C35.4178 50.9092 35.6776 50.8645 35.9379 50.8761ZM35.9379 51.5461C35.3082 51.5461 34.8883 52.0625 34.8883 52.9419C34.8883 53.8212 35.2942 54.3376 35.9379 54.3376C36.5816 54.3376 36.9735 53.8212 36.9735 52.9419C36.9735 52.0625 36.5676 51.5461 35.9379 51.5461ZM38.3309 50.9319H39.9543C40.1429 50.9122 40.3336 50.9347 40.5124 50.9979C40.6912 51.061 40.8536 51.1632 40.9877 51.297C41.1218 51.4308 41.2243 51.5927 41.2876 51.7711C41.3509 51.9494 41.3735 52.1396 41.3537 52.3277C41.3604 52.5097 41.3282 52.6909 41.2592 52.8595C41.1903 53.0281 41.0862 53.1801 40.9539 53.3055C40.8215 53.4309 40.664 53.5268 40.4916 53.5868C40.3193 53.6469 40.1361 53.6697 39.9543 53.6537H39.1846V54.882H38.3729L38.3309 50.9319ZM39.1426 51.574V52.9698H39.7304C39.916 52.9698 40.0939 52.8962 40.2252 52.7654C40.3564 52.6345 40.4301 52.457 40.4301 52.2719C40.4301 52.0868 40.3564 51.9093 40.2252 51.7784C40.0939 51.6475 39.916 51.574 39.7304 51.574H39.1426ZM47.0774 50.9319V54.8122H46.3637V52.2021L45.3142 54.7703H44.7964L43.7048 52.2021V54.8122H42.9771V50.9319H43.9287L45.0203 53.7235L46.1258 50.9319H47.0774ZM49.4845 50.9319C49.8884 50.9039 50.2915 50.9979 50.6411 51.2016C50.9907 51.4054 51.2707 51.7094 51.4445 52.0742C51.6183 52.439 51.6779 52.8475 51.6156 53.2465C51.5532 53.6456 51.3718 54.0166 51.0949 54.3113C50.818 54.606 50.4585 54.8107 50.0633 54.8987C49.6681 54.9866 49.2555 54.9538 48.8793 54.8045C48.5031 54.6552 48.1807 54.3963 47.9541 54.0615C47.7276 53.7268 47.6074 53.3318 47.6092 52.9279C47.5718 52.6653 47.593 52.3976 47.6714 52.1442C47.7497 51.8907 47.8832 51.6576 48.0624 51.4615C48.2416 51.2655 48.4619 51.1114 48.7078 51.0102C48.9536 50.909 49.2188 50.8632 49.4845 50.8761V50.9319ZM49.4845 51.6019C48.8407 51.6019 48.4349 52.1183 48.4349 52.9977C48.4349 53.877 48.8407 54.3935 49.4845 54.3935C50.1282 54.3935 50.5201 53.877 50.5201 52.9977C50.5201 52.1183 50.1142 51.5461 49.4845 51.5461V51.6019ZM53.6828 54.868H51.8775V50.9319H53.5988C54.3265 50.9319 54.7744 51.3088 54.7744 51.909C54.7733 52.1122 54.6993 52.3084 54.5658 52.462C54.4324 52.6156 54.2482 52.7165 54.0467 52.7464C54.2942 52.7537 54.5291 52.8569 54.7015 53.0341C54.874 53.2113 54.9704 53.4486 54.9703 53.6956C54.9703 54.3795 54.4525 54.8122 53.6268 54.8122L53.6828 54.868ZM52.7452 51.6019V52.6069H53.3609C53.7948 52.6069 54.0327 52.4115 54.0327 52.0904C54.0327 51.7694 53.8227 51.6019 53.4449 51.6019H52.7452ZM52.7452 54.2678H53.4729C53.9347 54.2678 54.2006 54.0724 54.2006 53.6956C54.2006 53.3187 53.9347 53.1373 53.4589 53.1373H52.7452V54.2678ZM56.2998 54.868H55.4881V50.9319H56.2998V54.868ZM59.4625 54.1981V54.868H56.9435V50.9319H57.6992V54.1422L59.4625 54.1981ZM62.5133 54.1981V54.868H59.8823V50.9319H62.4573V51.6019H60.694V52.5371H62.3593V53.221H60.694V54.1981H62.5133ZM66.8375 54.868L66.5437 53.9329H65.1442L64.8503 54.868H64.0107L65.4101 50.9878H66.3617L67.7612 54.868H66.8375ZM65.8439 51.7275L65.2842 53.221H66.3058L65.802 51.6298L65.8439 51.7275ZM68.097 50.9878H69.7204C69.909 50.968 70.0997 50.9906 70.2785 51.0537C70.4573 51.1169 70.6197 51.2191 70.7538 51.3528C70.8879 51.4866 70.9904 51.6486 71.0537 51.8269C71.117 52.0052 71.1396 52.1954 71.1198 52.3835C71.1265 52.5655 71.0943 52.7468 71.0253 52.9153C70.9564 53.0839 70.8523 53.2359 70.7199 53.3613C70.5876 53.4867 70.43 53.5826 70.2577 53.6427C70.0854 53.7027 69.9022 53.7255 69.7204 53.7095H68.8947V54.9378H68.083L68.097 50.9878ZM68.9087 51.6298V53.0256H69.4965C69.682 53.0256 69.86 52.9521 69.9912 52.8212C70.1225 52.6903 70.1962 52.5128 70.1962 52.3277C70.1962 52.1426 70.1225 51.9651 69.9912 51.8342C69.86 51.7033 69.682 51.6298 69.4965 51.6298H68.9087ZM71.5397 50.9878H73.093C73.2817 50.968 73.4724 50.9906 73.6511 51.0537C73.8299 51.1169 73.9923 51.2191 74.1264 51.3528C74.2606 51.4866 74.363 51.6486 74.4263 51.8269C74.4897 52.0052 74.5123 52.1954 74.4925 52.3835C74.4991 52.5655 74.4669 52.7468 74.398 52.9153C74.329 53.0839 74.2249 53.2359 74.0926 53.3613C73.9603 53.4867 73.8027 53.5826 73.6304 53.6427C73.458 53.7027 73.2749 53.7255 73.093 53.7095H72.3233V54.9378H71.5117L71.5397 50.9878ZM72.3513 51.6298V53.0256H72.9391C73.1247 53.0256 73.3027 52.9521 73.4339 52.8212C73.5651 52.6903 73.6388 52.5128 73.6388 52.3277C73.6388 52.1426 73.5651 51.9651 73.4339 51.8342C73.3027 51.7033 73.1247 51.6298 72.9391 51.6298H72.3513ZM18.5149 57.4084H20.0123C20.268 57.3881 20.525 57.4245 20.7648 57.5152C21.0047 57.6059 21.2214 57.7484 21.3994 57.9326C21.5774 58.1168 21.7123 58.3381 21.7942 58.5805C21.8762 58.8229 21.9033 59.0804 21.8735 59.3345C21.9026 59.5898 21.8753 59.8483 21.7935 60.092C21.7117 60.3356 21.5773 60.5584 21.3999 60.7446C21.2225 60.9309 21.0063 61.0761 20.7666 61.1701C20.5268 61.2641 20.2694 61.3046 20.0123 61.2886H18.5149V57.4084ZM19.3265 58.0783V60.6187H19.9143C20.642 60.6187 21.0339 60.172 21.0339 59.3345C21.0339 58.4971 20.628 58.0783 19.9143 58.0783H19.3265ZM24.9243 60.6187V61.2886H22.4473V57.4084H25.0223V58.0783H23.259V59.0135H24.9243V59.6416H23.259V60.6187H24.9243ZM27.5413 61.2886H26.5617L25.3581 57.4084H26.2678L27.1634 60.4512L28.0591 57.4084H28.9547L27.5413 61.2886ZM31.8235 60.6187V61.2886H29.3465V57.4084H31.9215V58.0783H30.1582V59.0135H31.8235V59.6416H30.1582V60.6187H31.8235ZM34.9303 60.6187V61.2886H32.5093V57.4084H33.3209V60.6187H34.9303ZM37.2534 57.4084C37.6567 57.3804 38.0592 57.474 38.4085 57.6772C38.7577 57.8803 39.0377 58.1836 39.2119 58.5475C39.3861 58.9114 39.4465 59.3192 39.3853 59.7178C39.324 60.1164 39.144 60.4874 38.8686 60.7827C38.5931 61.0779 38.235 61.2836 37.8408 61.3732C37.4466 61.4627 37.0344 61.4319 36.658 61.2848C36.2815 61.1376 35.9582 60.8809 35.7299 60.5481C35.5017 60.2152 35.3791 59.8216 35.3781 59.4183C35.3474 59.1589 35.3736 58.8959 35.455 58.6476C35.5364 58.3993 35.6709 58.1717 35.8493 57.9804C36.0278 57.7892 36.2458 57.639 36.4882 57.5402C36.7307 57.4414 36.9917 57.3964 37.2534 57.4084ZM37.2534 58.0923C36.6236 58.0923 36.2178 58.6087 36.2178 59.4881C36.2178 60.3674 36.6236 60.8839 37.2534 60.8839C37.8831 60.8839 38.303 60.3674 38.303 59.4881C38.303 58.6087 37.8971 58.0225 37.2534 58.0225V58.0923ZM39.6604 57.4084H41.2698C41.4584 57.3886 41.6491 57.4111 41.8279 57.4743C42.0067 57.5375 42.169 57.6397 42.3032 57.7734C42.4373 57.9072 42.5397 58.0692 42.6031 58.2475C42.6664 58.4258 42.689 58.616 42.6692 58.8041C42.6759 58.9861 42.6437 59.1674 42.5747 59.3359C42.5058 59.5045 42.4017 59.6565 42.2693 59.7819C42.137 59.9073 41.9794 60.0032 41.8071 60.0633C41.6348 60.1233 41.4516 60.1461 41.2698 60.1301H40.5001V61.3584H39.6884L39.6604 57.4084ZM40.4721 58.0504V59.4462H41.0599C41.2454 59.4462 41.4234 59.3727 41.5546 59.2418C41.6858 59.1109 41.7596 58.9334 41.7596 58.7483C41.7596 58.5632 41.6858 58.3857 41.5546 58.2548C41.4234 58.1239 41.2454 58.0504 41.0599 58.0504H40.4721ZM47.2174 57.4084V61.2886H46.5037V58.6646L45.4401 61.2468H44.9363L43.8447 58.6646V61.2886H43.117V57.4084H44.0547L45.1042 60.1999L46.2098 57.4084H47.2174ZM50.4361 60.6187V61.2886H47.9031V57.4084H50.4781V58.0783H48.6728V59.0135H50.3381V59.6416H48.6728V60.6187H50.4361ZM51.8355 61.2886H51.0519V57.4084H51.7376L53.5009 59.9347V57.4084H54.2706V61.2886H53.6408L51.8215 58.8041L51.8355 61.2886ZM56.7476 61.2886H55.9359V58.0783H54.8024V57.4084H57.8951V58.0783H56.7196L56.7476 61.2886ZM61.2398 61.2886C60.7462 61.2305 60.2912 60.9938 59.961 60.6233C59.6309 60.2528 59.4485 59.7744 59.4485 59.2787C59.4485 58.783 59.6309 58.3046 59.961 57.9341C60.2912 57.5636 60.7462 57.3269 61.2398 57.2688C61.6499 57.237 62.0564 57.3645 62.3746 57.6246C62.6927 57.8847 62.8978 58.2573 62.9471 58.6646H62.1634C62.1328 58.4426 62.0221 58.2394 61.8521 58.0929C61.6821 57.9465 61.4644 57.8669 61.2398 57.869C60.624 57.869 60.2322 58.3854 60.2322 59.2648C60.2322 60.1441 60.624 60.6605 61.2398 60.6605C61.4583 60.6736 61.674 60.6051 61.8447 60.4684C62.0154 60.3317 62.129 60.1365 62.1634 59.9208H62.9471C62.9296 60.1295 62.8706 60.3326 62.7735 60.5184C62.6764 60.7041 62.5432 60.8687 62.3817 61.0025C62.2201 61.1363 62.0335 61.2367 61.8326 61.2978C61.6318 61.3589 61.4207 61.3795 61.2118 61.3584L61.2398 61.2886ZM65.1722 57.4084C65.5785 57.3804 65.9838 57.4758 66.3346 57.6821C66.6854 57.8884 66.9653 58.1959 67.1375 58.564C67.3096 58.9322 67.3658 59.3437 67.2988 59.7444C67.2318 60.145 67.0446 60.516 66.7619 60.8085C66.4792 61.1009 66.1144 61.3011 65.7154 61.3826C65.3164 61.4641 64.902 61.4231 64.5269 61.265C64.1517 61.1069 63.8334 60.8392 63.6138 60.497C63.3942 60.1549 63.2838 59.7545 63.297 59.3485C63.2769 59.0946 63.3111 58.8393 63.3973 58.5996C63.4835 58.3598 63.6198 58.141 63.797 57.9577C63.9742 57.7743 64.1884 57.6305 64.4255 57.5358C64.6626 57.4412 64.9171 57.3977 65.1722 57.4084ZM65.1722 58.0923C64.5425 58.0923 64.1366 58.6087 64.1366 59.4881C64.1366 60.3674 64.5425 60.8839 65.1722 60.8839C65.802 60.8839 66.2218 60.3674 66.2218 59.4881C66.2218 58.6087 65.8159 58.0225 65.1722 58.0225V58.0923ZM71.6936 57.4084V61.2886H70.9659V58.6646L69.9163 61.2468H69.3985L68.3489 58.6646V61.2886H67.6212V57.4084H68.5588L69.6644 60.1999L70.756 57.4084H71.6936ZM72.3373 57.4084H73.9607C74.1493 57.3886 74.34 57.4111 74.5188 57.4743C74.6976 57.5375 74.86 57.6397 74.9941 57.7734C75.1282 57.9072 75.2307 58.0692 75.294 58.2475C75.3573 58.4258 75.3799 58.616 75.3601 58.8041C75.3668 58.9861 75.3346 59.1674 75.2656 59.3359C75.1967 59.5045 75.0926 59.6565 74.9603 59.7819C74.8279 59.9073 74.6703 60.0032 74.498 60.0633C74.3257 60.1233 74.1425 60.1461 73.9607 60.1301H73.093V61.3584H72.2814L72.3373 57.4084ZM73.149 58.0504V59.4462H73.7368C73.9224 59.4462 74.1003 59.3727 74.2316 59.2418C74.3628 59.1109 74.4365 58.9334 74.4365 58.7483C74.4365 58.5632 74.3628 58.3857 74.2316 58.2548C74.1003 58.1239 73.9224 58.0504 73.7368 58.0504H73.149ZM78.3269 61.2886L78.0331 60.3395H76.6336L76.3397 61.2886H75.5141L76.9135 57.4084H77.8651L79.2646 61.2886H78.3269ZM77.2914 58.1481L76.7876 59.7393H77.8091L77.3053 58.1481H77.2914ZM80.3141 61.2886H79.5305V57.4084H80.2162L82.0215 59.9347V57.4084H82.8891V61.2886H82.2174L80.3981 58.8041L80.3141 61.2886ZM85.3941 61.2886H84.5824V59.8928L83.183 57.4642H84.0646L84.9463 59.1252L85.9259 57.4084H86.8075L85.4081 59.837L85.3941 61.2886Z" fill="white"/>
</svg>
